<?xml version="1.0" encoding="UTF-8" standalone="no"?>
<!DOCTYPE svg PUBLIC "-//W3C//DTD SVG 1.1//EN" "http://www.w3.org/Graphics/SVG/1.1/DTD/svg11.dtd">
<svg version="1.1" xmlns="http://www.w3.org/2000/svg" xmlns:xlink="http://www.w3.org/1999/xlink" preserveAspectRatio="xMidYMid meet" viewBox="0 0 1500 1500" width="1500" height="1500"><defs><path d="M1015.73 1118.31C957.1 1118.31 909.57 1164.19 909.57 1220.79C909.57 1277.39 957.1 1323.27 1015.73 1323.27C1074.36 1323.27 1121.9 1277.39 1121.9 1220.79C1121.9 1164.19 1074.36 1118.31 1015.73 1118.31Z" id="b33sj2E02"></path><path d="M1223.45 227.14C1192.85 227.14 1168.06 251.08 1168.06 280.61C1168.06 310.14 1192.85 334.08 1223.45 334.08C1254.04 334.08 1278.84 310.14 1278.84 280.61C1278.84 251.08 1254.04 227.14 1223.45 227.14Z" id="c7DLfJEfH"></path><path d="M969.57 815.31C938.98 815.31 914.18 839.25 914.18 868.78C914.18 898.31 938.98 922.25 969.57 922.25C1000.16 922.25 1024.96 898.31 1024.96 868.78C1024.96 839.25 1000.16 815.31 969.57 815.31Z" id="cbsy39YEa"></path><path d="M783.77 404.78C770.52 404.78 759.78 415.52 759.78 428.76C759.78 442.01 770.52 452.74 783.77 452.74C797.01 452.74 807.75 442.01 807.75 428.76C807.75 415.52 797.01 404.78 783.77 404.78Z" id="e2NOWIVm2a"></path><path d="M700.23 442.84C700.2 444.32 700.19 454.72 700.2 468.32C700.2 509.84 735.06 543.5 778.07 543.5C778.07 543.5 778.07 543.5 778.07 543.5C821.12 543.49 856 509.8 855.99 468.25C855.99 468.23 855.99 468.22 855.99 468.2C855.98 458.95 855.98 452.55 855.98 452.16C855.96 373.41 922.08 309.55 1003.66 309.54C1085.23 309.52 1151.38 373.35 1151.4 452.1C1151.41 500.71 1125.76 545.98 1083.36 572.2C1083.36 572.2 1083.38 572.22 1083.39 572.23C1083.39 572.23 972.54 641.11 938.74 735.61C938.75 735.61 938.77 735.62 938.77 735.62C932.83 754.98 929.82 775.07 929.83 795.26C929.83 803.56 930.34 876.18 931.32 935.12C932.03 977.43 967.77 1011.37 1011.61 1011.36C1011.61 1011.36 1011.61 1011.36 1011.61 1011.36C1055.96 1011.36 1091.92 976.65 1091.91 933.84C1091.91 933.68 1091.91 933.52 1091.91 933.36C1091.57 879.38 1091.39 816.53 1091.39 811.97C1091.39 753.94 1149.38 696.13 1197.01 658.42C1251.86 615.01 1291.33 555.84 1307.18 489.1C1310.69 475.36 1312.63 461.29 1312.95 447.14C1312.95 283.8 1175.78 151.39 1006.57 151.39C1005.83 151.39 1005.1 151.39 1004.36 151.39C838.44 152.53 702.58 282.69 700.23 442.84Z" id="c576su07j"></path><path d="M22.16 1335C21.03 1334.99 20.11 1331.8 20.11 1327.87C20.12 1323.96 21.03 1320.79 22.16 1320.78C167.73 1320.78 1332.26 1320.78 1477.83 1320.78C1478.97 1320.78 1479.89 1323.96 1479.89 1327.89C1479.89 1331.82 1478.97 1335 1477.83 1335C1186.7 1335 167.73 1335 22.16 1335Z" id="acgmMo6Hj"></path><path d="M800.06 507.94C757.05 507.93 722.19 474.28 722.18 432.76C722.18 419.16 722.19 408.76 722.21 407.28C722.87 360.7 735.02 314.95 757.66 273.81C720.47 322.96 700.01 382.06 699.14 442.93C699.11 444.41 699.1 454.8 699.1 468.4C699.11 509.92 733.97 543.58 776.98 543.59C776.98 543.59 776.98 543.59 776.98 543.59C811.86 543.57 842.48 521.2 851.96 488.8C837.7 501.14 819.22 507.96 800.06 507.94C800.06 507.94 800.06 507.94 800.06 507.94Z" id="a1WqUSQVBa"></path><path d="M1150.14 459.05C1149.29 476.27 1145.21 493.2 1138.1 509.02C1190.98 449.06 1183.5 359.07 1121.39 308.02C1059.28 256.97 966.06 264.19 913.18 324.15C903.73 334.86 895.97 346.87 890.16 359.78C919.8 326.13 963.94 307.67 1009.64 309.81C1091.13 313.57 1154.03 380.38 1150.14 459.05Z" id="b4L0Bk3l"></path><path d="M1033.6 975.8C989.76 975.81 954.02 941.87 953.31 899.56C952.33 840.62 951.82 767.99 951.82 759.69C951.81 739.5 954.82 719.42 960.76 700.06C960.76 700.06 960.74 700.05 960.73 700.05C964.24 690.33 968.48 680.88 973.41 671.75C958.27 691.24 946.22 712.79 937.66 735.7C937.66 735.7 937.68 735.7 937.68 735.7C931.74 755.06 928.73 775.15 928.74 795.34C928.74 803.64 929.25 876.26 930.23 935.21C930.94 977.52 966.68 1011.46 1010.52 1011.45C1010.52 1011.45 1010.52 1011.45 1010.52 1011.45C1046.2 1011.44 1077.61 988.71 1087.61 955.64C1072.85 968.64 1053.58 975.83 1033.6 975.8C1033.6 975.8 1033.6 975.8 1033.6 975.8Z" id="cvi4rgyYY"></path><path d="M340.45 1297.84L353.91 1192.49L312.15 1192.49L312.15 1297.84L312.15 1297.84L340.45 1297.84Z" id="bJ619LY76"></path><path d="M306.09 1323.21L306.09 1290.04C338.83 1290.04 357.02 1290.04 360.66 1290.04C379.63 1290.04 395.02 1304.88 395.02 1323.2C395.02 1323.2 395.02 1323.2 395.02 1323.2L306.09 1323.21Z" id="b12FPXsnHo"></path><path d="M238.9 1297.84L252.36 1192.49L210.6 1192.49L210.6 1297.84L210.6 1297.84L238.9 1297.84Z" id="g3QMClwflY"></path><path d="M204.54 1323.21L204.54 1290.04C237.28 1290.04 255.47 1290.04 259.11 1290.04C278.08 1290.04 293.47 1304.88 293.47 1323.2C293.47 1323.2 293.47 1323.2 293.47 1323.2L204.54 1323.21Z" id="a1AO4swOf"></path><path d="M207.69 1264.04C201.74 1263.74 197.17 1258.84 197.49 1253.09C197.49 1253.05 197.49 1253.01 197.49 1252.97C199.7 1229.43 210.71 1111.75 230.53 899.92L382.65 939.55L397.3 935.69C369.8 1123.21 354.53 1227.39 351.47 1248.23C350.67 1253.07 346.48 1256.73 341.41 1257.02C338.43 1257.15 314.6 1258.22 311.62 1258.36C305.67 1258.68 300.58 1254.28 300.25 1248.54C300.23 1248.25 300.23 1247.96 300.24 1247.67C300.78 1228.92 305.1 1078.85 305.64 1060.09C305.69 1058.17 304.13 1056.58 302.14 1056.52C300.4 1056.48 298.87 1057.64 298.52 1059.29C293.31 1079.08 251.67 1237.37 246.46 1257.16C245.45 1262 241.03 1265.47 235.91 1265.46C235.72 1265.46 235.53 1265.45 235.33 1265.44C229.8 1265.16 210.46 1264.18 207.69 1264.04Z" id="a2gudM5tct"></path><path d="M317.23 501.61C285.93 501.61 260.55 526.11 260.55 556.33C260.55 586.55 285.93 611.05 317.23 611.05C348.54 611.05 373.92 586.55 373.92 556.33C373.92 526.11 348.54 501.61 317.23 501.61Z" id="h1frnjZcO5"></path><path d="M229.09 846.91C230.44 875.25 231.19 890.99 231.34 894.14C231.53 898.35 234.33 902.02 238.44 903.44C253.05 908.55 370 949.45 384.61 954.56C385.79 954.98 387.04 955.19 388.3 955.18C394.22 955.21 399.04 950.6 399.07 944.89C399.07 944.76 399.07 944.64 399.07 944.52C398.47 921.17 393.67 734.44 393.08 711.1C392.26 671.6 362.48 638.23 322.12 631.62C320.71 631.41 319.27 631.2 317.83 631.01C293.27 628.07 268.63 635.77 250.52 652.05C231.76 668.7 221.63 692.53 222.86 717.1C222.86 717.1 224.93 760.37 229.09 846.91Z" id="b2qQnS7fE0"></path><path d="M439.14 900.6C439.81 898.52 440.79 896.54 442.05 894.73C438.74 890.49 422.22 869.28 392.48 831.1L435.26 828.55C459.56 865.04 473.07 885.31 475.77 889.36C485.97 896.97 487.84 911.12 479.96 920.96C473.97 928.44 463.78 931.51 454.44 928.66C442.19 924.99 435.34 912.42 439.14 900.6Z" id="a1eTEAXRZ7"></path><path d="M413.72 877.61C406.26 860.43 346.51 723.02 339.04 705.85C332.88 691.71 339.76 675.43 354.4 669.48C369.05 663.54 385.91 670.18 392.07 684.31C392.08 684.33 392.08 684.34 392.09 684.35C399.56 701.53 459.3 838.94 466.77 856.12C469.07 861.42 466.49 867.52 461 869.75C457.68 871.09 431.16 881.84 427.84 883.18C425.21 884.26 422.23 884.27 419.59 883.22C416.94 882.18 414.82 880.16 413.72 877.61Z" id="aAuBB0gLX"></path><path d="M370.74 744.58C373.62 739.27 380.41 737.21 385.91 739.98C396.32 745.23 479.61 787.22 490.03 792.47C495.53 795.25 497.66 801.8 494.79 807.12C487.62 820.38 430.23 926.44 423.06 939.7C420.18 945.01 413.39 947.07 407.89 944.3C397.47 939.05 314.18 897.06 303.77 891.81C298.27 889.03 296.14 882.47 299.01 877.16C313.35 850.64 363.56 757.84 370.74 744.58Z" id="a2gyuGvYki"></path><path d="M317.19 803.5C315.08 804.27 313.1 805.33 311.3 806.65C306.72 803.71 283.81 789.04 242.57 762.64L242.46 804.01C281.63 825.28 303.39 837.1 307.74 839.46C316.21 848.84 330.95 849.81 340.66 841.63C348.04 835.42 350.62 825.41 347.11 816.59C342.59 805 329.2 799.14 317.19 803.5Z" id="dgY2iXIBv"></path><path d="M204.05 782.94C183.31 776.22 172.14 754.54 179.11 734.52C180.63 730.14 182.97 726.06 185.99 722.48C191.09 716.03 231.89 664.42 236.99 657.97C245.14 648.35 259.82 646.94 269.78 654.8C277.75 661.1 280.5 671.7 276.53 680.88C273.84 685.13 260.39 706.37 236.18 744.6C271.76 760.89 291.52 769.94 295.48 771.75C300.86 774.21 303.15 780.42 300.6 785.62C300.41 786 300.2 786.36 299.97 786.72C297.58 790.38 278.43 819.63 276.04 823.29C274.4 825.78 271.74 827.49 268.73 827.99C268.67 828 268.61 828.01 268.55 828.02C265.59 828.45 262.57 827.68 260.22 825.89C248.98 817.3 209.67 787.23 204.05 782.94Z" id="a1pgFbXfUI"></path><path d="M274.4 592.97C273.52 590.49 274.89 587.78 277.47 586.93C277.86 586.8 278.27 586.72 278.68 586.69C281.79 586.85 284.69 588.24 286.71 590.51C288.76 592.8 291.15 594.78 293.8 596.39C296.54 597.72 300.26 597.53 301.82 594.99C303.29 592.6 302.28 589.4 301.39 586.63C299.13 579.57 297.87 572.24 297.63 564.86C297.38 556.61 298.58 548.01 303.31 541.58C309.41 533.28 320.32 530.13 330.65 530.36C340.97 530.59 351.13 533.67 361.36 535.61C364.89 536.28 369.04 536.63 371.4 533.98C373.91 531.18 372.99 526.63 371.92 522.84C369.15 512.99 366.21 502.82 359.77 494.87C352.81 486.61 342.86 481.21 331.94 479.74C321.45 478.49 310.8 479.66 300.86 483.15C284.68 488.07 270.45 497.65 260.05 510.59C249.34 524.36 244.71 541.66 247.18 558.72C249.59 573.57 257.74 586.99 270 596.27C270.88 595.61 273.52 593.63 274.4 592.97Z" id="b23DOVaYfH"></path><path d="M937.41 1163.41C941.38 1154.62 946.61 1146.4 952.94 1139.01C905.59 1172.38 895.23 1236.49 929.81 1282.2C964.38 1327.91 1030.79 1337.91 1078.14 1304.54C1085.27 1299.51 1091.72 1293.65 1097.35 1287.08C1066.9 1308.57 1026.92 1312.83 992.34 1298.28C938.59 1275.68 914 1215.3 937.41 1163.41Z" id="d1R5BEnVZX"></path></defs><g><g><g><use xlink:href="#b33sj2E02" opacity="1" fill="#7d7b96" fill-opacity="1"></use><g><use xlink:href="#b33sj2E02" opacity="1" fill-opacity="0" stroke="#000000" stroke-width="1" stroke-opacity="0"></use></g></g><g><use xlink:href="#c7DLfJEfH" opacity="1" fill="#f2f2f2" fill-opacity="1"></use><g><use xlink:href="#c7DLfJEfH" opacity="1" fill-opacity="0" stroke="#000000" stroke-width="1" stroke-opacity="0"></use></g></g><g><use xlink:href="#cbsy39YEa" opacity="1" fill="#f2f2f2" fill-opacity="1"></use><g><use xlink:href="#cbsy39YEa" opacity="1" fill-opacity="0" stroke="#000000" stroke-width="1" stroke-opacity="0"></use></g></g><g><use xlink:href="#e2NOWIVm2a" opacity="1" fill="#f2f2f2" fill-opacity="1"></use><g><use xlink:href="#e2NOWIVm2a" opacity="1" fill-opacity="0" stroke="#000000" stroke-width="1" stroke-opacity="0"></use></g></g><g><use xlink:href="#c576su07j" opacity="1" fill="#767587" fill-opacity="1"></use><g><use xlink:href="#c576su07j" opacity="1" fill-opacity="0" stroke="#000000" stroke-width="1" stroke-opacity="0"></use></g></g><g><use xlink:href="#acgmMo6Hj" opacity="1" fill="#3f3d56" fill-opacity="1"></use><g><use xlink:href="#acgmMo6Hj" opacity="1" fill-opacity="0" stroke="#000000" stroke-width="1" stroke-opacity="0"></use></g></g><g><use xlink:href="#a1WqUSQVBa" opacity="1" fill="#3f3d56" fill-opacity="1"></use><g><use xlink:href="#a1WqUSQVBa" opacity="1" fill-opacity="0" stroke="#000000" stroke-width="1" stroke-opacity="0"></use></g></g><g><use xlink:href="#b4L0Bk3l" opacity="1" fill="#3f3d56" fill-opacity="1"></use><g><use xlink:href="#b4L0Bk3l" opacity="1" fill-opacity="0" stroke="#000000" stroke-width="1" stroke-opacity="0"></use></g></g><g><use xlink:href="#cvi4rgyYY" opacity="1" fill="#3f3d56" fill-opacity="1"></use><g><use xlink:href="#cvi4rgyYY" opacity="1" fill-opacity="0" stroke="#000000" stroke-width="1" stroke-opacity="0"></use></g></g><g><use xlink:href="#bJ619LY76" opacity="1" fill="#ffb8b8" fill-opacity="1"></use><g><use xlink:href="#bJ619LY76" opacity="1" fill-opacity="0" stroke="#000000" stroke-width="1" stroke-opacity="0"></use></g></g><g><use xlink:href="#b12FPXsnHo" opacity="1" fill="#2f2e41" fill-opacity="1"></use><g><use xlink:href="#b12FPXsnHo" opacity="1" fill-opacity="0" stroke="#000000" stroke-width="1" stroke-opacity="0"></use></g></g><g><use xlink:href="#g3QMClwflY" opacity="1" fill="#ffb8b8" fill-opacity="1"></use><g><use xlink:href="#g3QMClwflY" opacity="1" fill-opacity="0" stroke="#000000" stroke-width="1" stroke-opacity="0"></use></g></g><g><use xlink:href="#a1AO4swOf" opacity="1" fill="#2f2e41" fill-opacity="1"></use><g><use xlink:href="#a1AO4swOf" opacity="1" fill-opacity="0" stroke="#000000" stroke-width="1" stroke-opacity="0"></use></g></g><g><use xlink:href="#a2gudM5tct" opacity="1" fill="#2f2e41" fill-opacity="1"></use><g><use xlink:href="#a2gudM5tct" opacity="1" fill-opacity="0" stroke="#000000" stroke-width="1" stroke-opacity="0"></use></g></g><g><use xlink:href="#h1frnjZcO5" opacity="1" fill="#ffb8b8" fill-opacity="1"></use><g><use xlink:href="#h1frnjZcO5" opacity="1" fill-opacity="0" stroke="#000000" stroke-width="1" stroke-opacity="0"></use></g></g><g><use xlink:href="#b2qQnS7fE0" opacity="1" fill="#cccccc" fill-opacity="1"></use><g><use xlink:href="#b2qQnS7fE0" opacity="1" fill-opacity="0" stroke="#000000" stroke-width="1" stroke-opacity="0"></use></g></g><g><use xlink:href="#a1eTEAXRZ7" opacity="1" fill="#ffb8b8" fill-opacity="1"></use><g><use xlink:href="#a1eTEAXRZ7" opacity="1" fill-opacity="0" stroke="#000000" stroke-width="1" stroke-opacity="0"></use></g></g><g><use xlink:href="#aAuBB0gLX" opacity="1" fill="#cccccc" fill-opacity="1"></use><g><use xlink:href="#aAuBB0gLX" opacity="1" fill-opacity="0" stroke="#000000" stroke-width="1" stroke-opacity="0"></use></g></g><g><use xlink:href="#a2gyuGvYki" opacity="1" fill="#3f3d56" fill-opacity="1"></use><g><use xlink:href="#a2gyuGvYki" opacity="1" fill-opacity="0" stroke="#000000" stroke-width="1" stroke-opacity="0"></use></g></g><g><use xlink:href="#dgY2iXIBv" opacity="1" fill="#ffb8b8" fill-opacity="1"></use><g><use xlink:href="#dgY2iXIBv" opacity="1" fill-opacity="0" stroke="#000000" stroke-width="1" stroke-opacity="0"></use></g></g><g><use xlink:href="#a1pgFbXfUI" opacity="1" fill="#cccccc" fill-opacity="1"></use><g><use xlink:href="#a1pgFbXfUI" opacity="1" fill-opacity="0" stroke="#000000" stroke-width="1" stroke-opacity="0"></use></g></g><g><use xlink:href="#b23DOVaYfH" opacity="1" fill="#2f2e41" fill-opacity="1"></use><g><use xlink:href="#b23DOVaYfH" opacity="1" fill-opacity="0" stroke="#000000" stroke-width="1" stroke-opacity="0"></use></g></g><g><use xlink:href="#d1R5BEnVZX" opacity="1" fill="#3f3d56" fill-opacity="1"></use><g><use xlink:href="#d1R5BEnVZX" opacity="1" fill-opacity="0" stroke="#000000" stroke-width="1" stroke-opacity="0"></use></g></g></g></g></svg>