<?xml version="1.0" encoding="UTF-8" standalone="no"?>
<!DOCTYPE svg PUBLIC "-//W3C//DTD SVG 1.1//EN" "http://www.w3.org/Graphics/SVG/1.1/DTD/svg11.dtd">
<svg version="1.1" xmlns="http://www.w3.org/2000/svg" xmlns:xlink="http://www.w3.org/1999/xlink" preserveAspectRatio="xMidYMid meet" viewBox="0 0 1500 1500" width="1500" height="1500"><defs><path d="M1356.99 991.96C1353.24 1000.32 1350.33 1006.71 1349.59 1008.35C1348.51 1010.72 1347.42 1013.05 1346.37 1015.37C1334.43 1041.26 1323.29 1064.16 1313.82 1082.99C1296.33 1117.74 1262.38 1139.6 1225.27 1140.01C1211.24 1140.17 1141.08 1140.98 1014.8 1142.44L1012.58 1142.44L994.54 1142.65L979.11 1142.82L931.78 1143.37L929.87 1143.37L905.77 1143.65L905.04 1143.65L756.54 1145.36L623.99 1146.83L608.57 1147.01L512.81 1148.11L512.69 1148.11L450.59 1148.82L449.92 1148.82L253.54 1151.07C218.3 1151.48 198.71 1151.71 194.8 1151.75C182.26 1151.9 169.78 1150 157.78 1146.12C136.91 1139.43 118.16 1126.82 103.53 1109.66C78.3 1080.14 59.91 1045.71 47.56 1008.35C44.88 1000.26 43.06 993.6 42.56 991.96C-0.19 838.51 51.93 640.53 145.75 508.04C149.68 502.5 153.68 497.1 157.74 491.83C157.8 491.76 157.83 491.72 157.84 491.71C186.69 454.11 219.04 422.7 253.5 400.36C314.57 360.71 382.22 349.54 448.77 382.83C505.08 411 557.65 424.25 608.61 427.84C613.76 428.19 618.91 428.46 624.03 428.62C740.92 432.53 850.48 387.81 979.13 358.95C984.25 357.8 989.39 356.66 994.57 355.59C1086.34 336.2 1188.16 325.97 1309.23 347.47C1321.81 349.65 1334.22 352.8 1346.37 356.9C1354.38 359.64 1360.26 362.2 1361.8 362.79C1419.59 387.75 1451.11 433.87 1464.5 491.65C1466.4 499.7 1467.46 506.39 1467.79 508.02C1491.54 647.02 1421.99 844.19 1361.8 981.06C1359.39 986.58 1357.47 990.87 1356.99 991.96Z" id="b4111O5xuO"></path><path d="M253.5 1151.24C218.25 1151.64 198.67 1151.87 194.75 1151.91C182.22 1152.06 169.73 1150.17 157.74 1146.29C157.74 1102.65 157.74 884.46 157.74 491.71C157.8 491.71 157.83 491.71 157.84 491.71C186.69 454.07 219.04 422.65 253.5 400.36C253.5 400.36 253.5 650.65 253.5 1151.24Z" id="e8r2KFOXFW"></path><path d="M145.75 508.04C149.68 502.5 153.68 497.1 157.74 491.83L157.74 491.71C941.84 491.71 1377.45 491.71 1464.57 491.71C1465.84 497.05 1466.94 502.49 1467.86 508.04C674.59 508.04 233.89 508.04 145.75 508.04Z" id="a21Ss3rnBC"></path><path d="M1361.8 991.95C1358.91 991.95 1357.31 991.95 1356.99 991.95C1353.24 1000.3 1350.33 1006.69 1349.59 1008.33C1348.51 1010.7 1347.42 1013.03 1346.37 1015.36C1346.37 949.51 1346.37 422.7 1346.37 356.85C1351.71 358.68 1356.85 360.66 1361.8 362.81L1361.8 991.95Z" id="a1dwccdI6Y"></path><path d="M994.57 1142.71L979.13 1142.88C979.13 672.49 979.13 411.17 979.13 358.9C984.25 357.75 989.39 356.62 994.57 355.54C994.57 460.5 994.57 722.88 994.57 1142.71Z" id="a4FV20p8I"></path><path d="M624.03 1146.98L608.61 1147.15C608.61 715.54 608.61 475.75 608.61 427.8C613.76 428.15 618.91 428.36 624.03 428.58C624.03 524.36 624.03 763.83 624.03 1146.98Z" id="c4ARAeT06"></path><path d="M1356.99 991.96C1354.49 997.53 1352.02 1002.99 1349.59 1008.35C568.37 1008.35 134.36 1008.35 47.56 1008.35C45.78 1002.95 44.11 997.49 42.56 991.96C743.59 991.96 1181.73 991.96 1356.99 991.96Z" id="ay6ULGrMI"></path><path d="M347.46 727.07C347.46 727.07 347.46 727.07 347.46 727.07C347.46 778.05 347.46 806.37 347.46 812.03C347.46 812.03 347.46 812.03 347.46 812.03C331.64 812.03 322.85 812.03 321.09 812.03C321.09 812.03 321.09 812.03 321.09 812.03C321.09 761.06 321.09 732.74 321.09 727.07C321.09 727.07 321.09 727.07 321.09 727.07C336.91 727.07 345.7 727.07 347.46 727.07Z" id="auygSt8qZ"></path><path d="M1057.1 722.65C1057.1 722.65 1057.1 722.65 1057.1 722.65C1057.1 776.58 1057.1 806.54 1057.1 812.53C1057.1 812.53 1057.1 812.53 1057.1 812.53C1041.28 812.53 1032.49 812.53 1030.73 812.53C1030.73 812.53 1030.73 812.53 1030.73 812.53C1030.73 758.6 1030.73 728.65 1030.73 722.65C1030.73 722.65 1030.73 722.65 1030.73 722.65C1046.55 722.65 1055.34 722.65 1057.1 722.65Z" id="a3EDnTLrGX"></path><path d="M1225.27 1140.83L1014.43 1142.9L1012.18 1142.94L932.04 1143.72L930.13 1143.75L905.77 1143.97L905.05 1143.97L756.58 1145.43L512.86 1147.83L512.65 1147.83L450.69 1148.45L450.02 1148.47L174.67 1151.15L174.67 1129.05L239.42 1087.79L369.32 1086.64L372.09 1086.63L373.01 1086.61L375.78 1086.57L438.15 1086.02L440.94 1086.01L441.83 1085.99L444.61 1085.98L464.61 1085.8L465.13 1085.79L514.47 1085.35L514.87 1085.35L899.86 1081.9L909.28 1081.82L910.23 1081.82L917.42 1081.75L969.67 1081.29L972.44 1081.25L975.01 1081.22L976.34 1081.22L992.6 1081.09L995.82 1081.04L1000.13 1081.01L1013.66 1080.88L1035.13 1080.69L1037.91 1080.66L1042.74 1080.63L1043.64 1080.63L1147.33 1079.69L1225.27 1121.68L1225.27 1121.68L1225.27 1140.83Z" id="a19CAAhLs"></path><path d="M1225.27 1140.83L1014.43 1142.9L1012.18 1142.94L932.04 1143.72L930.13 1143.75L905.77 1143.97L905.05 1143.97L756.58 1145.43L512.86 1147.83L512.65 1147.83L450.69 1148.45L450.02 1148.47L174.67 1151.15L174.67 1129.05L239.42 1087.79L369.32 1086.64L372.09 1086.63L373.01 1086.61L375.78 1086.57L438.15 1086.02L440.94 1086.01L441.83 1085.99L444.61 1085.98L464.61 1085.8L465.13 1085.79L514.47 1085.35L514.87 1085.35L899.86 1081.9L909.28 1081.82L910.23 1081.82L917.42 1081.75L969.67 1081.29L972.44 1081.25L975.01 1081.22L976.34 1081.22L992.6 1081.09L995.82 1081.04L1000.13 1081.01L1013.66 1080.88L1035.13 1080.69L1037.91 1080.66L1042.74 1080.63L1043.64 1080.63L1147.33 1079.69L1225.27 1121.68L1225.27 1121.68L1225.27 1140.83Z" id="e16NyTdbyG"></path><path d="M438.36 1048.02C438.36 1069.67 438.36 1081.7 438.36 1084.11C438.36 1087.6 436.47 1090.77 433.5 1092.27C432.42 1092.83 431.24 1093.13 430.04 1093.15C425.19 1093.26 386.44 1094.14 381.6 1094.25C380.31 1094.28 379.02 1093.99 377.85 1093.41C374.83 1091.93 372.89 1088.73 372.9 1085.2C372.9 1082.72 372.9 1070.33 372.9 1048.02L438.36 1048.02Z" id="b2qHJ1BjuJ"></path><path d="M438.36 1048.02C438.36 1069.67 438.36 1081.7 438.36 1084.11C438.36 1087.6 436.47 1090.77 433.5 1092.27C432.42 1092.83 431.24 1093.13 430.04 1093.15C425.19 1093.26 386.44 1094.14 381.6 1094.25C380.31 1094.28 379.02 1093.99 377.85 1093.41C374.83 1091.93 372.89 1088.73 372.9 1085.2C372.9 1082.72 372.9 1070.33 372.9 1048.02L438.36 1048.02Z" id="f5TKniAzC"></path><path d="M441.14 1048.02C441.14 1069.67 441.14 1081.7 441.14 1084.11C441.14 1087.6 439.25 1090.77 436.28 1092.27C435.2 1092.83 434.01 1093.13 432.81 1093.15C427.97 1093.26 389.22 1094.14 384.38 1094.25C383.08 1094.28 381.8 1093.99 380.63 1093.41C377.61 1091.93 375.67 1088.73 375.67 1085.2C375.67 1082.72 375.67 1070.33 375.67 1048.02L441.14 1048.02Z" id="aWTbiBBdg"></path><path d="M1037.91 1048.02C1037.91 1048.02 1037.91 1048.02 1037.91 1048.02C1037.91 1075.87 1037.91 1091.34 1037.91 1094.44C1037.91 1094.44 1037.91 1094.44 1037.91 1094.44C998.63 1094.44 976.81 1094.44 972.44 1094.44C972.44 1094.44 972.44 1094.44 972.44 1094.44C972.44 1066.59 972.44 1051.12 972.44 1048.02C972.44 1048.02 972.44 1048.02 972.44 1048.02C1011.72 1048.02 1033.54 1048.02 1037.91 1048.02Z" id="barwCAaD"></path><path d="M1037.91 1048.02C1037.91 1048.02 1037.91 1048.02 1037.91 1048.02C1037.91 1075.87 1037.91 1091.34 1037.91 1094.44C1037.91 1094.44 1037.91 1094.44 1037.91 1094.44C998.63 1094.44 976.81 1094.44 972.44 1094.44C972.44 1094.44 972.44 1094.44 972.44 1094.44C972.44 1066.59 972.44 1051.12 972.44 1048.02C972.44 1048.02 972.44 1048.02 972.44 1048.02C1011.72 1048.02 1033.54 1048.02 1037.91 1048.02Z" id="b4eeextL1"></path><path d="M1035.13 1048.02C1035.13 1048.02 1035.13 1048.02 1035.13 1048.02C1035.13 1075.87 1035.13 1091.34 1035.13 1094.44C1035.13 1094.44 1035.13 1094.44 1035.13 1094.44C995.85 1094.44 974.03 1094.44 969.67 1094.44C969.67 1094.44 969.67 1094.44 969.67 1094.44C969.67 1066.59 969.67 1051.12 969.67 1048.02C969.67 1048.02 969.67 1048.02 969.67 1048.02C1008.95 1048.02 1030.77 1048.02 1035.13 1048.02Z" id="eZ8FnP8bH"></path><path d="M347.46 735.5L321.09 734.78L321.09 727.06L347.46 727.06L347.46 727.06L347.46 735.5Z" id="c3ipo1R6Ae"></path><path d="M489.34 730.86C488.92 734.06 486.31 736.41 483.27 736.33C466.36 735.86 381.79 733.53 229.58 729.34C226.69 729.26 225.08 729.22 224.76 729.21C221.47 729.13 218.86 726.22 218.94 722.73C218.94 722.5 218.96 722.26 218.99 722.03C222.54 696.74 251 494.38 254.56 469.08C255.03 465.83 257.77 463.51 260.86 463.73C286.32 465.56 490.01 480.2 515.47 482.03C518.75 482.23 521.26 485.22 521.07 488.71C521.06 488.88 521.04 489.05 521.02 489.22C514.68 537.55 492.51 706.7 489.34 730.86Z" id="bobEev0Gk"></path><path d="M244.76 704.47L477.92 712.33L506.59 497.21L271.59 481.5L271.59 481.5L244.76 704.47Z" id="a7qRx065U"></path><path d="M837.84 478.05C842.77 478.05 845.23 480.67 845.23 485.91C845.23 629.71 845.23 709.61 845.23 725.59C845.23 730.82 842.77 733.44 837.84 733.44C676.28 733.44 586.53 733.44 568.58 733.44C563.65 733.44 561.19 730.82 561.19 725.59C561.19 581.78 561.19 501.89 561.19 485.91C561.19 480.67 563.65 478.05 568.58 478.05C730.14 478.05 819.89 478.05 837.84 478.05Z" id="c1zistFreH"></path><path d="M832.73 495.25C832.73 495.25 832.73 495.25 832.73 495.25C832.73 622.84 832.73 693.73 832.73 707.91C832.73 707.91 832.73 707.91 832.73 707.91C677.85 707.91 591.8 707.91 574.59 707.91C574.59 707.91 574.59 707.91 574.59 707.91C574.59 580.31 574.59 509.43 574.59 495.25C574.59 495.25 574.59 495.25 574.59 495.25C729.48 495.25 815.52 495.25 832.73 495.25Z" id="aOiSHcIsk"></path><path d="M1057.1 728.22L1030.73 728.8L1030.73 722.64L1057.1 722.64L1057.1 722.64L1057.1 728.22Z" id="a4L77O9m1E"></path><path d="M1176.08 717.92C1176.24 720.43 1174.45 722.59 1172.09 722.75C1172.04 722.75 1171.98 722.76 1171.92 722.76C1145.94 723.33 938.09 727.89 912.11 728.46C909.88 728.51 907.98 726.71 907.77 724.35C905.54 699.7 887.67 502.52 885.44 477.88C885.22 475.38 886.94 473.17 889.29 472.93C889.36 472.92 889.42 472.92 889.49 472.91C906.68 472.01 992.63 467.47 1147.33 459.3C1148.99 459.21 1149.92 459.16 1150.1 459.15C1152.39 459.02 1154.37 460.85 1154.57 463.28C1158.87 514.21 1171.78 666.99 1176.08 717.92Z" id="b4yDzn8qvG"></path><path d="M1135.75 475.11L1155.64 699.06L922.02 704.96L900.28 487.4L900.28 487.4L1135.75 475.11Z" id="cnQsnYBsW"></path><path d="M1176.08 717.92C1176.24 720.43 1174.45 722.59 1172.09 722.75C1172.04 722.75 1171.98 722.76 1171.92 722.76C1170.28 705.19 1162.08 617.37 1147.33 459.3C1148.99 459.21 1149.92 459.16 1150.1 459.15C1152.39 459.02 1154.37 460.85 1154.57 463.28C1158.87 514.21 1171.78 666.99 1176.08 717.92Z" id="e1I5zX4UoD"></path><path d="M229.58 729.34C226.69 729.26 225.08 729.22 224.76 729.21C221.47 729.13 218.86 726.22 218.94 722.73C218.94 722.5 218.96 722.26 218.99 722.03C222.54 696.74 251 494.38 254.56 469.08C255.03 465.81 257.79 463.47 260.9 463.72C260.9 463.72 250.46 552.26 229.58 729.34Z" id="a1HLO2Ph9"></path><path d="M347.46 786.86C347.46 786.86 347.46 786.86 347.46 786.86C347.46 801.96 347.46 810.35 347.46 812.03C347.46 812.03 347.46 812.03 347.46 812.03C331.64 812.03 322.85 812.03 321.09 812.03C321.09 812.03 321.09 812.03 321.09 812.03C321.09 796.93 321.09 788.54 321.09 786.86C321.09 786.86 321.09 786.86 321.09 786.86C336.91 786.86 345.7 786.86 347.46 786.86Z" id="a1TJnGFMOW"></path><path d="M441.14 1055.33L375.67 1057.19L375.67 1048.01L441.14 1048.01L441.14 1048.01L441.14 1055.33Z" id="b6PSkX53Q"></path><path d="M556.68 1043.46C556.64 1046.6 554.29 1049.16 551.33 1049.28C533.6 1049.78 444.94 1052.28 285.35 1056.79C285.31 1056.79 285.29 1056.79 285.28 1056.79C282.27 1056.75 279.84 1054.17 279.8 1050.97C279.8 1025.44 279.8 821.17 279.8 795.63C279.84 792.43 282.27 789.85 285.28 789.81C311.87 789.81 524.6 789.81 551.19 789.81C554.21 789.85 556.64 792.43 556.68 795.63C556.68 845.2 556.68 1018.67 556.68 1043.46Z" id="c1IIgcFRKC"></path><path d="M285.35 1056.79C285.31 1056.79 285.29 1056.79 285.28 1056.79C282.27 1056.75 279.84 1054.17 279.8 1050.97C279.8 1025.44 279.8 821.17 279.8 795.63C279.84 792.43 282.27 789.85 285.28 789.81C285.29 789.81 285.32 878.8 285.35 1056.79Z" id="b3oZTag7fu"></path><path d="M543.84 805.64L543.84 1024.07L297.5 1029.96L297.5 805.64L297.5 805.64L543.84 805.64Z" id="b5DSpHFtEF"></path><path d="M1057.1 786.86C1057.1 786.86 1057.1 786.86 1057.1 786.86C1057.1 802.26 1057.1 810.82 1057.1 812.53C1057.1 812.53 1057.1 812.53 1057.1 812.53C1041.28 812.53 1032.49 812.53 1030.73 812.53C1030.73 812.53 1030.73 812.53 1030.73 812.53C1030.73 797.13 1030.73 788.58 1030.73 786.86C1030.73 786.86 1030.73 786.86 1030.73 786.86C1046.55 786.86 1055.34 786.86 1057.1 786.86Z" id="b5cyAhDTY"></path><path d="M1035.13 1057.45L969.67 1055.6L969.67 1048.01L1035.13 1048.01L1035.13 1048.01L1035.13 1057.45Z" id="abcwzDPbq"></path><path d="M1121.53 1050.97C1121.49 1054.2 1119.01 1056.79 1115.97 1056.79C1115.97 1056.79 1115.97 1056.79 1115.97 1056.79C956.35 1052.28 867.68 1049.78 849.94 1049.28C846.98 1049.16 844.63 1046.6 844.6 1043.46C844.6 1018.67 844.6 820.41 844.6 795.63C844.63 792.43 847.07 789.85 850.08 789.81C876.67 789.81 1089.4 789.81 1115.99 789.81C1119.02 789.82 1121.49 792.41 1121.53 795.63C1121.53 846.7 1121.53 1025.44 1121.53 1050.97Z" id="cbN1pXpZl"></path><path d="M1121.53 1050.97C1121.49 1054.2 1119.01 1056.79 1115.97 1056.79C1115.97 1056.79 1115.97 1056.79 1115.97 1056.79L1115.97 789.81C1115.97 789.81 1115.97 789.81 1115.97 789.81C1119.01 789.81 1121.49 792.41 1121.53 795.63C1121.53 846.7 1121.53 1025.44 1121.53 1050.97Z" id="a2T1pMA3VB"></path><path d="M857.49 805.64L857.49 1024.07L1103.83 1029.96L1103.83 805.64L1103.83 805.64L857.49 805.64Z" id="a111xYszKA"></path><path d="M837.71 1043.46C837.68 1046.6 835.33 1049.16 832.37 1049.28C814.64 1049.78 725.98 1052.28 566.39 1056.79C566.39 1056.79 566.39 1056.79 566.39 1056.79C563.35 1056.79 560.88 1054.2 560.84 1050.97C560.84 1025.44 560.84 821.17 560.84 795.63C560.88 792.43 563.31 789.85 566.32 789.81C592.91 789.81 805.64 789.81 832.23 789.81C835.24 789.85 837.68 792.43 837.71 795.63C837.71 845.2 837.71 1018.67 837.71 1043.46Z" id="e1FyNQjBap"></path><path d="M824.88 805.64L824.88 1024.07L578.53 1029.96L578.53 805.64L578.53 805.64L824.88 805.64Z" id="b26NcYSdVG"></path><path d="M1225.27 1140.83L1014.43 1142.9L1012.18 1142.94L932.04 1143.72L930.13 1143.75L905.77 1143.97L905.05 1143.97L756.58 1145.43L512.86 1147.83L512.65 1147.83L450.69 1148.45L450.02 1148.47L174.67 1151.15L174.67 1129.05L455.72 1127.09L456.39 1127.09L513.28 1126.67L513.54 1126.67L906.41 1123.92L906.81 1123.92L907.05 1123.9L907.7 1123.9L914.35 1123.86L916.38 1123.86L1019.76 1123.12L1025.86 1123.09L1027.22 1123.08L1225.27 1121.68L1225.27 1121.68L1225.27 1140.83Z" id="b2TY1kY0Kr"></path><path d="M703.66 660.77C664.32 660.77 632.42 694.63 632.42 736.4C632.42 778.17 664.32 812.03 703.66 812.03C743 812.03 774.9 778.17 774.9 736.4C774.9 694.63 743 660.77 703.66 660.77Z" id="af5K85c1K"></path><path d="M449.88 1148.98C449.88 1148.82 449.96 1148.64 450.02 1148.47C451.41 1143.18 453.88 1134.23 455.72 1127.09C455.96 1126.2 456.18 1125.33 456.39 1124.51C458.43 1116.45 462.4 1097.57 464.61 1085.8C465.38 1081.66 465.99 1078.44 466.12 1076.81C466.4 1074.32 470.57 1063.67 475.31 1051.43C478.62 1042.82 482.25 1033.42 484.9 1025.5C486.63 1020.79 487.99 1015.93 488.96 1010.98C489.17 1009.95 489.17 1008.88 488.96 1007.84C488.55 1006.16 488.32 1004.43 488.3 1002.69C488.3 1002.69 488.3 1002.69 488.3 1002.69C487.98 993.55 490.54 979.11 494.51 973.06C499.37 965.69 502.84 938.2 502.84 938.2C502.84 938.2 510.03 939.3 511.17 933C511.29 932.32 511.33 931.62 511.31 930.93C511.3 930.39 511.26 929.84 511.18 929.3C509.95 920.1 531.61 910.32 543.8 908.21C545.17 907.96 546.56 907.83 547.96 907.8C550.92 907.46 553.83 906.75 556.63 905.68C558.58 905.05 560.38 904.35 560.8 904.21C565.9 902.38 572.01 899.96 578.49 897.31C602.86 887.28 632.37 873.74 632.37 873.74C632.58 872.69 632.81 871.69 633.08 870.7C636.03 858.1 644.46 847.75 655.77 842.81C655.77 842.81 655.77 842.81 655.77 842.81C655.77 841.84 655.77 840.85 655.77 839.86C655.77 834.78 655.56 829.55 655.35 824.33C655.35 823.32 655.27 822.3 655.21 821.28C655.21 820.99 655.21 820.68 655.21 820.38C655.21 820.09 655.21 819.87 655.21 819.62C655.21 818.59 655.11 817.56 655.06 816.54C655.03 816.52 654.83 816.35 654.81 816.33C652.68 814.62 650.85 812.53 649.4 810.14C648.59 808.75 647.93 807.27 647.43 805.72C645.69 800.73 645.29 795.16 644.12 789.88C644.1 789.78 643.9 788.9 643.87 788.79C642.35 783.47 640.5 778.26 638.32 773.21C635.25 765.22 632.9 757 630.55 748.67C629.13 743.63 627.69 738.59 626.23 733.53C624.92 728.9 624.19 726.32 624.04 725.81C623.62 724.33 623.21 722.86 622.89 721.39C622.89 721.39 622.89 721.39 622.89 721.39C622.73 720.71 622.61 720.02 622.53 719.32C622.14 717.06 622.25 714.74 622.86 712.53C623.4 711.03 624.01 709.55 624.69 708.11C624.98 707.46 625.22 706.78 625.39 706.08C625.39 706.08 625.39 706.08 625.39 706.08C625.43 705.92 625.47 705.77 625.5 705.61C625.6 705.08 625.65 704.55 625.65 704.02C625.6 702.08 625.36 700.16 624.93 698.28C624.92 698.26 624.92 698.23 624.93 698.21C624.91 698.08 624.89 697.94 624.86 697.81C624.61 696.35 624.44 694.87 624.36 693.39C623.87 685.41 625.54 677.45 629.18 670.45C629.2 670.4 629.41 669.97 629.44 669.92C630.2 668.5 631.06 667.13 631.99 665.82C631.99 665.82 631.99 665.82 631.99 665.82C632.42 665.21 632.87 664.62 633.38 664.03C631.44 666 628.25 665.13 626.44 663.01C626.14 662.68 625.89 662.31 625.68 661.91C625.56 661.69 625.45 661.47 625.36 661.24C625.29 661.07 625.23 660.87 625.18 660.68C624.21 657.07 625.9 653.23 628.12 650.3C630.31 647.44 633.02 645.08 636.09 643.37C636.09 643.37 636.09 643.37 636.09 643.37C636.27 643.26 636.45 643.15 636.64 643.06C637.82 642.43 639.05 641.91 640.31 641.5C640.31 641.5 640.31 641.5 640.31 641.5C641.05 641.24 641.8 641.02 642.57 640.85C642.23 640.82 640.51 640.65 637.42 640.35C636.17 640.23 635.48 640.16 635.34 640.14C637.46 631.22 644.73 624.74 653.38 624.07C653.53 624.07 654.73 624.07 654.88 624.07C655.61 624.08 656.34 624.14 657.06 624.26C654.69 623.16 653.23 620.61 653.38 617.88C657.01 620.9 661.52 622.49 666.13 622.39C666.19 622.39 666.61 622.39 666.66 622.39C666.42 620.79 666.26 619.18 666.19 617.57C666.19 617.57 666.19 617.57 666.19 617.57C666.05 615.38 666.05 613.19 666.19 611C668.71 613.53 672.15 614.75 675.6 614.33C675.31 613.9 673 610.48 672.71 610.06C675.29 612.24 678.53 613.31 681.82 613.08C681.88 613.07 682.42 613.01 682.48 613C683.04 612.94 683.59 612.83 684.13 612.66C684.15 612.66 684.25 612.66 684.26 612.66C684 612.31 683.76 611.94 683.52 611.56C683.52 611.54 683.45 611.4 683.44 611.38C682.86 610.42 682.4 609.39 682.05 608.3C681.91 607.88 681.8 607.46 681.72 607.02C681.72 607.02 681.72 607.02 681.72 607.02C681.11 604.34 681.33 601.53 682.34 598.99C686.83 602.97 691.74 608.41 697.61 604.3C703.48 600.18 703.68 592.64 712.88 593.41C718.03 593.92 722.5 597.38 724.55 602.42C727.21 599.23 731.49 598.19 735.19 599.85C738.83 601.68 740.99 605.74 740.58 610C744.39 608.98 748.5 607.98 752.17 609.51C755.83 611.04 758.19 616.01 756.11 619.32C756.05 619.43 755.99 619.53 755.91 619.62C754.21 621.96 750.43 623.24 750.83 626.19C750.87 626.22 751.07 626.37 751.42 626.63C752.5 627.46 753.1 627.93 753.22 628.02C763.84 636.15 771.83 643.4 773.9 645.11C777.34 648.17 781.01 651.86 781.24 656.65C781.28 657.82 781.17 659 780.91 660.14C780.91 660.14 780.91 660.14 780.91 660.14C780.69 661.29 780.38 662.44 780.15 663.59C779.55 666.51 779.39 669.52 779.67 672.5C779.67 672.5 779.67 672.5 779.67 672.5C779.77 673.37 779.9 674.22 780.05 675.09C782.17 686.48 790.75 695.88 791.59 707.51C791.59 707.59 791.59 708.25 791.59 708.33C791.65 709.58 791.61 710.82 791.5 712.06C790.86 719.13 787.78 725.92 785.28 732.69C785.13 733.1 784.97 733.51 784.84 733.93C780.02 747.19 777.24 761.32 775.12 775.42C774.44 780.42 773.51 785.38 772.35 790.28C771.08 795.89 768.67 801.14 765.28 805.65C763.93 807.35 762.36 808.83 760.62 810.07C759.45 810.87 758.22 811.56 756.94 812.15C756.94 812.15 756.94 812.15 756.94 812.24C757.09 813.14 757.22 814.03 757.37 814.93C757.45 815.4 757.52 815.88 757.61 816.41C757.61 816.41 757.61 816.41 757.61 816.41C757.6 816.44 757.6 816.47 757.61 816.49C758.77 823.46 760.1 830.29 761.51 836.77C761.58 837.09 762.14 839.67 762.21 840C779.7 846.7 781.77 860.43 781.89 865.69C781.94 866.39 781.94 867.1 781.89 867.8C781.89 867.8 808.26 868.54 818.67 876.64C820.62 878.04 822.72 879.18 824.93 880.03C829.13 881.71 833.41 883.13 837.77 884.29C840 884.9 842.33 885.51 844.71 886.1C848.87 887.11 853.28 888.1 857.54 889.04C868.91 891.48 879.61 893.46 885.04 894.94C897.99 898.42 927.6 928.56 927.6 928.56C927.6 928.56 931.07 958.97 934.54 963.41C938.01 967.84 944.26 983.43 944.26 983.43C945.79 986.32 953.44 1000.76 967.21 1026.76L976.93 1044.99C980.67 1044.99 982.76 1044.99 983.17 1044.99C984.03 1044.99 985.73 1046.29 987.63 1048.08C989.28 1049.65 991.11 1051.59 992.72 1053.36C992.9 1053.56 993.79 1054.57 995.38 1056.38C996.38 1057.55 996.94 1058.21 997.05 1058.34C997.05 1058.34 1007.14 1058.6 1009.87 1067.08C1018.09 1066.83 1028.18 1067.4 1035.24 1070.76C1036.21 1071.21 1037.14 1071.74 1038.02 1072.35C1040.95 1074.15 1043.03 1077.18 1043.75 1080.69C1043.89 1081.39 1043.98 1082.1 1044 1082.81C1044 1083.65 1044 1084.49 1044 1085.32C1043.5 1096.47 1036.66 1105.75 1030.37 1112C1030.42 1112.08 1030.77 1112.76 1030.82 1112.84C1030.82 1112.84 1030.61 1113.37 1030.21 1114.31C1030.09 1114.59 1029.96 1114.9 1029.8 1115.26C1029.8 1115.26 1029.8 1115.26 1029.8 1115.26C1028.98 1117.11 1027.68 1119.9 1025.97 1123.15C1022.35 1130.2 1017.89 1136.72 1012.69 1142.56C1012.66 1142.59 1012.53 1142.73 1012.29 1143L932.15 1143.78L931.92 1143.49L916.38 1123.8L908.64 1114.02L908.41 1113.71L908.19 1116.05L907.44 1123.86L905.63 1142.73L905.54 1143.68L905.54 1143.93L905.33 1146.11L905.48 1143.93L905.08 1143.93L756.58 1145.4L512.85 1148.26L512.85 1149.5L512.65 1149.5L512.65 1148.26L450.55 1148.97C450.19 1148.97 449.97 1148.98 449.88 1148.98Z" id="bo0NFTdI"></path><linearGradient id="gradientaaorN9q6i" gradientUnits="userSpaceOnUse" x1="746.89" y1="1149.5" x2="746.89" y2="592.92"><stop style="stop-color: #808080;stop-opacity: 0.25" offset="0%"></stop><stop style="stop-color: #808080;stop-opacity: 0.12" offset="54%"></stop><stop style="stop-color: #808080;stop-opacity: 0.1" offset="100%"></stop></linearGradient><path d="M650.01 891.11C654.78 884.71 656.1 865.77 655.84 844.18C655.75 837.62 655.53 830.83 655.21 824.07C653.69 791.65 650.01 759.97 650.01 759.97C650.01 759.97 770.75 699.57 756.87 747.45C751.32 766.8 753.14 793.97 757.36 819.47C758.59 826.91 760.02 834.2 761.52 841.13C765.18 858.02 769.65 874.7 774.91 891.11C774.91 891.11 636.82 908.79 650.01 891.11Z" id="d26BbaRDwf"></path><path d="M650.01 891.11C654.78 884.71 656.1 865.77 655.84 844.18C676.89 834.63 703.68 841.75 703.68 841.75C731.88 835.78 749.96 836.95 761.52 841.13C765.18 858.02 769.65 874.7 774.91 891.11C774.91 891.11 636.82 908.79 650.01 891.11Z" id="c11rndla4A"></path><path d="M512.81 1148.26L756.54 1145.45L905.04 1143.97L905.45 1143.97L905.3 1146.15L905.51 1143.97L905.77 1143.97L905.77 1143.72L907.67 1123.9L908.4 1116.4L908.62 1114.06L908.81 1112.1L917.39 1081.74L925.97 1051.41L933.18 1025.88C939.79 1002.47 943.47 989.46 944.2 986.86C944.2 986.86 937.96 971.39 934.49 966.97C934.49 966.97 927.55 932.35 927.55 932.35C927.55 932.35 897.93 902.39 884.98 898.95C879.56 897.47 868.84 895.51 857.46 893.05C853.2 892.14 848.83 891.17 844.62 890.11C842.25 889.53 839.92 888.93 837.68 888.32C833.34 887.17 829.05 885.76 824.85 884.11C822.64 883.26 820.55 882.13 818.6 880.73C808.4 872.79 782.84 871.89 781.85 871.89C781.85 871.89 781.85 871.89 781.85 871.89C781.85 871.86 781.85 871.83 781.85 871.79C781.85 871.78 781.85 871.67 781.85 871.66C781.89 871.04 781.89 870.42 781.85 869.8C781.85 869.21 781.85 868.52 781.73 867.74C781.73 867.5 781.73 867.25 781.63 867C781.56 866.47 781.48 865.91 781.35 865.32C781.31 865.06 781.25 864.8 781.19 864.54C780.78 862.77 780.2 861.04 779.45 859.4C779.35 859.16 779.23 858.91 779.12 858.68C778.44 857.32 777.65 856.02 776.76 854.8C776.58 854.55 776.38 854.29 776.18 854.04C775.04 852.61 773.77 851.31 772.4 850.15C772.03 849.84 771.64 849.51 771.24 849.22C771.01 849.03 770.77 848.85 770.53 848.69C770.44 848.63 770.03 848.35 769.29 847.83C768.6 847.41 768.22 847.17 768.14 847.13C767.13 846.54 766.06 845.96 764.89 845.42C764.53 845.24 764.14 845.08 763.75 844.92C763.37 844.75 762.76 844.5 762.24 844.3C762.24 844.3 762.21 844.3 762.16 844.3C761.53 844.03 761.19 843.89 761.12 843.86C760.33 843.58 759.52 843.33 758.68 843.07C758.59 843.05 758.16 842.93 757.38 842.72L756 842.38C755.16 842.2 754.7 842.09 754.61 842.07C753.22 841.78 751.74 841.51 750.18 841.31C750.08 841.29 749.55 841.22 748.6 841.1L746.98 840.92L745.3 840.78L742.91 840.63C741.24 840.57 740.32 840.53 740.13 840.53C727.89 840.52 715.68 841.9 703.72 844.64C695.4 842.67 686.89 841.84 678.37 842.16C678.29 842.16 677.89 842.16 677.17 842.16L675.78 842.25L674.89 842.25C673.82 842.36 673.22 842.41 673.1 842.43C672.5 842.43 671.89 842.56 671.3 842.65C670.7 842.74 670.08 842.81 669.48 842.91C669.39 842.93 668.65 843.06 668.56 843.07C667.66 843.24 666.74 843.41 665.79 843.62C665.33 843.71 664.96 843.82 664.87 843.84C663.66 844.12 662.46 844.46 661.26 844.84C660.67 845.02 660.07 845.23 659.47 845.45C659.17 845.54 658.88 845.65 658.58 845.77C658.53 845.79 658.23 845.91 657.7 846.11L656.82 846.48C656.2 846.74 655.85 846.89 655.78 846.92C655.25 847.16 654.74 847.41 654.23 847.67C653.94 847.8 653.64 847.95 653.37 848.11C653.09 848.28 652.8 848.41 652.53 848.57C649.4 850.29 646.5 852.46 643.91 855.02C643.87 855.07 643.63 855.31 643.21 855.75C642.79 856.2 642.56 856.45 642.51 856.5C642.28 856.75 642.06 857.01 641.83 857.28C640.93 858.33 640.09 859.44 639.31 860.59C639.09 860.9 638.88 861.21 638.67 861.54C637.79 862.92 636.99 864.35 636.28 865.84C636.1 866.19 635.93 866.56 635.77 866.91C634.64 869.4 633.71 871.99 632.99 874.65C632.6 876.12 632.36 877.3 632.28 877.6C631.97 879.07 602.9 891.36 578.53 901.32C572.05 903.97 565.95 906.37 560.84 908.18C559.35 908.71 557.97 909.2 556.68 909.66C553.87 910.73 550.96 911.44 548 911.78C546.61 911.8 545.21 911.94 543.84 912.19C532.64 914.12 513.44 922.51 511.35 930.92C511.18 931.59 511.13 932.29 511.21 932.98C511.21 932.98 511.21 933.08 511.21 933.14C512.6 943.46 502.88 941.98 502.88 941.98C502.88 941.98 499.41 969.24 494.56 976.61C491.04 981.91 488.64 993.74 488.34 1002.67C488.34 1002.67 488.34 1002.67 488.34 1002.67C488.16 1005.46 488.37 1008.25 488.95 1010.97C488.95 1011.04 488.95 1011.12 488.95 1011.17C489.5 1013.15 488.17 1018.54 485.91 1025.45C483.45 1033.04 479.87 1042.47 476.43 1051.37C471.24 1064.81 466.35 1077.01 466.05 1079.69C465.92 1080.88 465.56 1083.02 465.06 1085.77C463.04 1097 458.54 1118.38 456.32 1127.03C454.67 1133.48 452.27 1142.32 450.62 1148.39C450.62 1148.57 450.52 1148.75 450.48 1148.91C454.63 1148.86 475.36 1148.65 512.69 1148.26L512.69 1149.5L512.89 1149.5L512.81 1148.26Z" id="o1VUyisxdQ"></path><path d="M535.51 975.83C535.51 975.83 614.62 1019.29 643.07 1014.14C643.07 1014.14 535.51 975.83 535.51 975.83Z" id="b4aMxZOCy"></path><path d="M799.2 988.35C824.88 992.04 696.5 958.15 696.5 958.15C717.04 964.19 773.53 984.67 799.2 988.35Z" id="f8fRiJ0Mc"></path><path d="M633.16 877.79C645.16 832.11 703.7 847.64 703.7 847.64C776.16 832.29 781.71 864.14 781.94 872.81C741.69 880.68 665.91 878.98 633.16 877.79Z" id="b15qTLo3wa"></path><path d="M633.16 874.84C645.16 829.17 703.7 844.7 703.7 844.7C776.16 829.34 781.71 861.2 781.94 869.86C741.69 877.73 665.91 876.03 633.16 874.84Z" id="c3avPiNkuB"></path><path d="M995.58 1071.23C995.58 1071.23 1042.99 1063.5 1043.92 1085.6C1043.92 1085.6 1019.74 1123.14 1019.74 1123.14C1014.91 1112.76 1000.41 1081.61 995.58 1071.23Z" id="a9Pvp9S3V"></path><path d="M751.11 822.03C736.15 827.52 721.06 833.04 705.31 835.04C689.56 837.05 673.03 835.28 659.29 826.94C657.85 826.08 656.46 825.12 655.13 824.07C653.6 791.65 649.92 759.97 649.92 759.97C649.92 759.97 770.67 699.57 756.79 747.45C751.26 766.8 753.14 793.97 757.36 819.47C755.32 820.44 753.23 821.29 751.11 822.03Z" id="b21kxjk36m"></path><path d="M672.57 615.61C672.86 616.04 675.17 619.44 675.46 619.87C672.02 620.29 668.57 619.08 666.05 616.55C665.79 620.37 665.94 624.2 666.49 627.97C661.72 628.22 657.02 626.65 653.23 623.55C653.08 626.28 654.54 628.81 656.89 629.9C646.97 628.64 637.7 635.4 635.24 645.68C635.97 645.75 641.76 646.32 642.49 646.39C636.79 647.68 631.68 650.99 628 655.78C625.78 658.72 624.08 662.49 625.05 666.09C626.03 669.69 630.72 671.98 633.27 669.42C625.92 678.74 622.82 691.03 624.8 703C625.46 705.52 625.68 708.15 625.44 710.75C624.98 713.18 623.54 715.29 622.82 717.66C621.43 721.96 622.75 726.63 623.99 730.92C624.64 733.19 629.84 751.37 630.49 753.64C632.85 761.85 635.2 770.07 638.28 778.01C640.46 783.03 642.32 788.2 643.83 793.49C645.58 800.63 645.65 808.44 649.38 814.67C651.94 818.59 655.36 821.79 659.35 823.99C673.07 832.33 689.66 834.1 705.37 832.1C721.08 830.09 736.15 824.57 751.1 819.09C754.42 818.03 757.61 816.54 760.59 814.67C770.93 807.48 773.23 792.77 775.16 779.82C777.31 765.38 780.19 750.97 785.28 737.39C788.31 729.3 792.22 721.09 791.55 712.43C790.71 700.92 782.13 691.59 780.01 680.28C779.3 676.5 779.33 672.6 780.1 668.83C780.76 666.59 781.13 664.26 781.2 661.91C780.96 657.16 777.3 653.51 773.86 650.46C762.66 640.53 753.05 633.56 750.74 631.69C750.33 628.74 754.11 627.47 755.82 625.14C758.23 621.86 755.73 616.64 752.07 615.11C748.41 613.58 744.3 614.58 740.48 615.6C741.12 610.28 737.57 605.42 732.56 604.74C729.5 604.33 726.45 605.58 724.45 608.07C722.39 603.04 717.91 599.61 712.77 599.11C703.56 598.34 703.38 605.81 697.5 609.92C691.61 614.03 686.76 608.61 682.23 604.66C680.54 609.21 681.26 614.36 684.12 618.19C680.1 619.32 675.82 618.36 672.57 615.61Z" id="b1g15VrsPS"></path><path d="M1030.73 1115.43C1030.73 1115.43 1029.5 1118.56 1027.22 1123.08C1023.78 1130.04 1019.59 1136.55 1014.73 1142.48C1014.71 1142.51 1014.58 1142.66 1014.36 1142.91L1012.11 1142.91L931.97 1143.69L930.06 1143.69L929.82 1143.4L914.28 1123.82L908.42 1116.43L908.19 1116.12L907.69 1115.51L907.41 1115.15L907.05 1114.7L895.65 1100.34L899.82 1081.93L906.91 1050.9L907.09 1050.15L908.48 1044.25L909.46 1039.83L912.77 1025.42L924.09 975.84L944.22 986.89L965.44 1026.67L976.83 1048.04C980.58 1048.04 982.66 1048.04 983.07 1048.04C984.25 1048.04 986.96 1050.46 989.68 1053.24C990.65 1054.23 991.62 1055.27 992.46 1056.19C994.93 1058.9 996.88 1061.23 996.88 1061.23C996.88 1061.23 1007 1061.46 1009.72 1069.92C1009.86 1070.33 1009.98 1070.75 1010.07 1071.17C1010.97 1074.5 1012.15 1077.73 1013.58 1080.84C1015.37 1084.98 1017.62 1089.68 1019.89 1094.38C1024.13 1103 1028.43 1111.2 1030.01 1114.18C1030.02 1114.2 1030.09 1114.33 1030.21 1114.55C1030.49 1115.02 1030.66 1115.31 1030.73 1115.43Z" id="drRjal1iz"></path><path d="M911.38 1051.02L911.38 1051.16L911.14 1054.55L909.3 1081.82L907.06 1114.68L906.42 1123.93L905.04 1143.74L905.04 1143.99L756.54 1145.46L512.85 1148.26L512.85 1149.5L512.65 1149.5L512.65 1148.26L512.65 1147.85L513.28 1126.69L514.47 1085.35L515.5 1050.29C515.56 1048.2 515.59 1047.03 515.6 1046.8C515.84 1038.24 522.58 1031.51 530.65 1031.77C530.91 1031.78 531.18 1031.79 531.44 1031.82C538 1032.41 546.5 1033.13 556.68 1033.89C557.09 1033.93 560.42 1034.19 560.84 1034.22C619.59 1038.55 728.16 1044.15 837.71 1037.17C840.02 1037.03 842.33 1036.89 844.65 1036.71C861.64 1035.57 878.61 1034.12 895.42 1032.29C903.45 1031.4 910.64 1037.58 911.48 1046.1C911.57 1047.01 911.58 1047.92 911.52 1048.83C911.52 1048.84 911.47 1049.57 911.38 1051.02Z" id="b1RQoZaXoL"></path><path d="M512.81 1148.26L756.54 1145.45L905.04 1143.97L905.45 1143.97L905.45 1143.72L906.84 1123.92L907.44 1115.08L909.71 1081.77L911.5 1055.39C911.5 1055 911.5 1054.79 911.5 1054.74C911.59 1053.53 911.54 1052.31 911.35 1051.1C911.36 1051.06 911.36 1051.01 911.35 1050.96C910.97 1048.47 910.02 1046.12 908.58 1044.12C905.47 1039.89 900.53 1037.66 895.5 1038.23C878.7 1040.05 861.72 1041.51 844.74 1042.65C842.42 1042.82 840.1 1042.97 837.8 1043.1C728.24 1050.01 619.67 1044.41 560.92 1040.16C560.51 1040.12 557.17 1039.86 556.76 1039.83C546.59 1039.07 538.08 1038.36 531.53 1037.75C524.06 1037.09 517.33 1042.51 515.93 1050.32C515.79 1051.12 515.7 1051.93 515.68 1052.74C515.62 1054.92 515.3 1065.8 514.73 1085.39L513.44 1126.75L512.83 1147.91L512.83 1148.32L512.83 1149.56L512.81 1148.26Z" id="b2MCoenPU"></path><path d="M910.23 1081.82L907.69 1115.49L907.05 1123.92L905.66 1142.79L905.58 1143.74L905.58 1143.99L905.58 1143.99L905.37 1146.17L905.52 1143.99L905.12 1143.99L756.62 1145.46L512.85 1148.26L512.85 1147.85L513.53 1126.69L514.92 1085.35C515.45 1068.86 515.74 1059.7 515.8 1057.87C515.89 1054.69 517.49 1051.78 520.05 1050.13C521.62 1049.11 523.46 1048.64 525.3 1048.81C528.21 1049.06 531.79 1049.35 535.97 1049.67C542.76 1050.21 551.12 1050.82 560.87 1051.47C578.91 1052.68 601.54 1053.98 627.48 1055.04C699.65 1057.98 797.08 1058.97 889.62 1050.37C893.78 1049.98 898.08 1049.56 902.29 1049.13C903.95 1048.95 905.63 1049.29 907.12 1050.1C907.54 1050.32 907.94 1050.59 908.31 1050.9C909.52 1051.83 910.48 1053.08 911.09 1054.52C911.23 1054.81 911.35 1055.11 911.43 1055.42C911.85 1056.64 912.02 1057.94 911.93 1059.24C911.71 1062.25 911.14 1069.78 910.23 1081.82Z" id="b6MlLWo47"></path><path d="M441.14 1079.41C441.14 1082.23 441.14 1083.79 441.14 1084.11C441.14 1087.6 439.25 1090.77 436.28 1092.27C430.72 1092.38 386.19 1093.29 380.63 1093.41C377.61 1091.93 375.67 1088.73 375.67 1085.2C375.67 1084.9 375.67 1083.43 375.67 1080.78L441.14 1079.41Z" id="f1tTNFW9vw"></path><path d="M369.32 1096.51L369.32 1083.74L441.83 1082.27L441.83 1095.04L441.83 1095.04L369.32 1096.51Z" id="c6JvmocwtE"></path><path d="M369.32 1096.51L369.32 1083.74L441.83 1082.27L441.83 1095.04L441.83 1095.04L369.32 1096.51Z" id="c2fcFbW6Xt"></path><path d="M372.09 1096.51L372.09 1083.74L444.61 1082.27L444.61 1095.04L444.61 1095.04L372.09 1096.51Z" id="bRivhwloZ"></path><path d="M682.07 606.96C681.73 609.24 681.93 611.57 682.65 613.74C683.34 613.67 684.02 613.54 684.69 613.36C683.33 611.49 682.43 609.29 682.07 606.96Z" id="e1qa2Vut0"></path><path d="M667.06 623.14C666.8 621.33 666.63 619.51 666.55 617.69C666.55 619.5 666.55 621.33 666.55 623.16C666.65 623.15 666.96 623.14 667.06 623.14Z" id="c22IkWS2T0"></path><path d="M780.67 668.4C781.33 666.16 781.7 663.84 781.78 661.49C781.75 660.97 781.68 660.44 781.56 659.93C781.32 661.29 780.95 662.64 780.67 663.98C780.12 666.72 779.95 669.52 780.17 672.31C780.25 671 780.42 669.69 780.67 668.4Z" id="b1KpNDZqYx"></path><path d="M752.82 627.94C754.09 626.96 755.29 625.87 756.39 624.67C757.45 623.11 757.65 621.07 756.91 619.31C756.77 619.65 756.6 619.96 756.39 620.25C754.68 622.58 750.9 623.86 751.31 626.78C751.61 627.01 752.67 627.83 752.82 627.94Z" id="cwKTh81nE"></path><path d="M637.27 640.95C636.76 642.03 636.36 643.15 636.06 644.31C638.23 643.03 640.57 642.09 643 641.53C641.85 641.41 638.41 641.07 637.27 640.95Z" id="a6wJj4JCn0"></path><path d="M653.8 623.11C653.76 623.69 653.8 624.28 653.92 624.85C654.75 624.81 655.58 624.83 656.41 624.92C655.49 624.39 654.62 623.78 653.8 623.11Z" id="a2F0rpiELg"></path><path d="M785.85 732.54C780.76 746.13 777.88 760.53 775.73 774.99C773.8 787.94 771.57 802.64 761.16 809.82C758.19 811.71 755 813.19 751.68 814.24C736.72 819.74 721.63 825.25 705.88 827.25C690.13 829.25 673.6 827.5 659.86 819.16C655.88 816.95 652.46 813.75 649.9 809.83C646.19 803.6 646.12 795.79 644.35 788.66C642.83 783.37 640.98 778.19 638.79 773.16C635.73 765.23 633.37 756.95 631.02 748.81C627.76 737.45 625.16 728.35 624.51 726.07C623.8 723.79 623.27 721.45 622.93 719.07C622.39 722.85 623.44 726.79 624.51 730.49C627.76 741.88 630.37 750.95 631.02 753.23C633.37 761.43 635.73 769.66 638.79 777.58C640.98 782.61 642.83 787.79 644.35 793.08C646.09 800.21 646.16 808.02 649.9 814.25C652.46 818.17 655.88 821.37 659.86 823.58C673.6 831.92 690.17 833.67 705.88 831.67C721.59 829.67 736.66 824.16 751.68 818.66C755 817.61 758.19 816.13 761.16 814.24C771.5 807.06 773.8 792.36 775.73 779.41C777.88 764.96 780.76 750.55 785.85 736.96C788.87 728.89 792.79 720.68 792.12 712C792.12 711.91 792.09 711.82 792.09 711.74C791.53 718.88 788.39 725.76 785.85 732.54Z" id="a2h6Am7tV3"></path><path d="M625.98 705.87C626.23 703.27 626.02 700.65 625.35 698.14C625.07 696.52 624.89 694.89 624.8 693.24C624.64 696.36 624.83 699.49 625.35 702.56C625.57 703.71 625.82 704.87 625.98 706.03C625.98 706 625.98 705.93 625.98 705.87Z" id="c1sHX4Gua6"></path><path d="M633.84 664.59C631.3 667.17 626.61 664.87 625.62 661.29C625.26 662.73 625.26 664.26 625.62 665.71C626.32 667.91 628.07 669.54 630.22 669.99C631.28 668.09 632.5 666.28 633.84 664.59Z" id="a1kn8X4H0l"></path><path d="M976.84 1079.7C972.44 1094.44 976.84 1048.02 976.84 1048.02C976.84 1054.36 981.24 1064.97 976.84 1079.7Z" id="bQnTeBRI"></path><path d="M993.26 1090.64C989.1 1094.45 995.58 1065.31 995.58 1065.31C995.12 1070.37 997.42 1086.82 993.26 1090.64Z" id="cHBtWdpuq"></path><path d="M303.59 840.57L444.61 839.1" id="c5fGz0UCMB"></path><path d="M303.59 858.94L444.61 857.48" id="d4TspEQhP"></path><path d="M303.59 877.33L444.61 875.86" id="bJ1nmpS60"></path></defs><g><g><g><use xlink:href="#b4111O5xuO" opacity="1" fill="#c9c6f6" fill-opacity="1"></use><g><use xlink:href="#b4111O5xuO" opacity="1" fill-opacity="0" stroke="#000000" stroke-width="1" stroke-opacity="0"></use></g></g><g><use xlink:href="#e8r2KFOXFW" opacity="1" fill="#000000" fill-opacity="1"></use><g><use xlink:href="#e8r2KFOXFW" opacity="1" fill-opacity="0" stroke="#000000" stroke-width="1" stroke-opacity="0"></use></g></g><g><use xlink:href="#a21Ss3rnBC" opacity="1" fill="#000000" fill-opacity="1"></use><g><use xlink:href="#a21Ss3rnBC" opacity="1" fill-opacity="0" stroke="#000000" stroke-width="1" stroke-opacity="0"></use></g></g><g><use xlink:href="#a1dwccdI6Y" opacity="1" fill="#000000" fill-opacity="1"></use><g><use xlink:href="#a1dwccdI6Y" opacity="1" fill-opacity="0" stroke="#000000" stroke-width="1" stroke-opacity="0"></use></g></g><g><use xlink:href="#a4FV20p8I" opacity="1" fill="#000000" fill-opacity="1"></use><g><use xlink:href="#a4FV20p8I" opacity="1" fill-opacity="0" stroke="#000000" stroke-width="1" stroke-opacity="0"></use></g></g><g><use xlink:href="#c4ARAeT06" opacity="1" fill="#000000" fill-opacity="1"></use><g><use xlink:href="#c4ARAeT06" opacity="1" fill-opacity="0" stroke="#000000" stroke-width="1" stroke-opacity="0"></use></g></g><g><use xlink:href="#ay6ULGrMI" opacity="1" fill="#000000" fill-opacity="1"></use><g><use xlink:href="#ay6ULGrMI" opacity="1" fill-opacity="0" stroke="#000000" stroke-width="1" stroke-opacity="0"></use></g></g><g><use xlink:href="#auygSt8qZ" opacity="1" fill="#3f3d56" fill-opacity="1"></use><g><use xlink:href="#auygSt8qZ" opacity="1" fill-opacity="0" stroke="#000000" stroke-width="1" stroke-opacity="0"></use></g></g><g><use xlink:href="#a3EDnTLrGX" opacity="1" fill="#3f3d56" fill-opacity="1"></use><g><use xlink:href="#a3EDnTLrGX" opacity="1" fill-opacity="0" stroke="#000000" stroke-width="1" stroke-opacity="0"></use></g></g><g><use xlink:href="#a19CAAhLs" opacity="1" fill="#65617d" fill-opacity="1"></use><g><use xlink:href="#a19CAAhLs" opacity="1" fill-opacity="0" stroke="#000000" stroke-width="1" stroke-opacity="0"></use></g></g><g><use xlink:href="#e16NyTdbyG" opacity="1" fill="#000000" fill-opacity="1"></use><g><use xlink:href="#e16NyTdbyG" opacity="1" fill-opacity="0" stroke="#000000" stroke-width="1" stroke-opacity="0"></use></g></g><g><use xlink:href="#b2qHJ1BjuJ" opacity="1" fill="#3f3d56" fill-opacity="1"></use><g><use xlink:href="#b2qHJ1BjuJ" opacity="1" fill-opacity="0" stroke="#000000" stroke-width="1" stroke-opacity="0"></use></g></g><g><use xlink:href="#f5TKniAzC" opacity="1" fill="#000000" fill-opacity="1"></use><g><use xlink:href="#f5TKniAzC" opacity="1" fill-opacity="0" stroke="#000000" stroke-width="1" stroke-opacity="0"></use></g></g><g><use xlink:href="#aWTbiBBdg" opacity="1" fill="#3f3d56" fill-opacity="1"></use><g><use xlink:href="#aWTbiBBdg" opacity="1" fill-opacity="0" stroke="#000000" stroke-width="1" stroke-opacity="0"></use></g></g><g><use xlink:href="#barwCAaD" opacity="1" fill="#3f3d56" fill-opacity="1"></use><g><use xlink:href="#barwCAaD" opacity="1" fill-opacity="0" stroke="#000000" stroke-width="1" stroke-opacity="0"></use></g></g><g><use xlink:href="#b4eeextL1" opacity="1" fill="#000000" fill-opacity="1"></use><g><use xlink:href="#b4eeextL1" opacity="1" fill-opacity="0" stroke="#000000" stroke-width="1" stroke-opacity="0"></use></g></g><g><use xlink:href="#eZ8FnP8bH" opacity="1" fill="#3f3d56" fill-opacity="1"></use><g><use xlink:href="#eZ8FnP8bH" opacity="1" fill-opacity="0" stroke="#000000" stroke-width="1" stroke-opacity="0"></use></g></g><g><use xlink:href="#c3ipo1R6Ae" opacity="1" fill="#000000" fill-opacity="1"></use><g><use xlink:href="#c3ipo1R6Ae" opacity="1" fill-opacity="0" stroke="#000000" stroke-width="1" stroke-opacity="0"></use></g></g><g><use xlink:href="#bobEev0Gk" opacity="1" fill="#65617d" fill-opacity="1"></use><g><use xlink:href="#bobEev0Gk" opacity="1" fill-opacity="0" stroke="#000000" stroke-width="1" stroke-opacity="0"></use></g></g><g><use xlink:href="#a7qRx065U" opacity="1" fill="#ffa963" fill-opacity="1"></use><g><use xlink:href="#a7qRx065U" opacity="1" fill-opacity="0" stroke="#000000" stroke-width="1" stroke-opacity="0"></use></g></g><g><use xlink:href="#c1zistFreH" opacity="1" fill="#65617d" fill-opacity="1"></use><g><use xlink:href="#c1zistFreH" opacity="1" fill-opacity="0" stroke="#000000" stroke-width="1" stroke-opacity="0"></use></g></g><g><use xlink:href="#aOiSHcIsk" opacity="1" fill="#ffd563" fill-opacity="1"></use><g><use xlink:href="#aOiSHcIsk" opacity="1" fill-opacity="0" stroke="#000000" stroke-width="1" stroke-opacity="0"></use></g></g><g><use xlink:href="#a4L77O9m1E" opacity="1" fill="#000000" fill-opacity="1"></use><g><use xlink:href="#a4L77O9m1E" opacity="1" fill-opacity="0" stroke="#000000" stroke-width="1" stroke-opacity="0"></use></g></g><g><use xlink:href="#b4yDzn8qvG" opacity="1" fill="#65617d" fill-opacity="1"></use><g><use xlink:href="#b4yDzn8qvG" opacity="1" fill-opacity="0" stroke="#000000" stroke-width="1" stroke-opacity="0"></use></g></g><g><use xlink:href="#cnQsnYBsW" opacity="1" fill="#fff063" fill-opacity="1"></use><g><use xlink:href="#cnQsnYBsW" opacity="1" fill-opacity="0" stroke="#000000" stroke-width="1" stroke-opacity="0"></use></g></g><g><use xlink:href="#e1I5zX4UoD" opacity="1" fill="#000000" fill-opacity="1"></use><g><use xlink:href="#e1I5zX4UoD" opacity="1" fill-opacity="0" stroke="#000000" stroke-width="1" stroke-opacity="0"></use></g></g><g><use xlink:href="#a1HLO2Ph9" opacity="1" fill="#000000" fill-opacity="1"></use><g><use xlink:href="#a1HLO2Ph9" opacity="1" fill-opacity="0" stroke="#000000" stroke-width="1" stroke-opacity="0"></use></g></g><g><use xlink:href="#a1TJnGFMOW" opacity="1" fill="#000000" fill-opacity="1"></use><g><use xlink:href="#a1TJnGFMOW" opacity="1" fill-opacity="0" stroke="#000000" stroke-width="1" stroke-opacity="0"></use></g></g><g><use xlink:href="#b6PSkX53Q" opacity="1" fill="#000000" fill-opacity="1"></use><g><use xlink:href="#b6PSkX53Q" opacity="1" fill-opacity="0" stroke="#000000" stroke-width="1" stroke-opacity="0"></use></g></g><g><use xlink:href="#c1IIgcFRKC" opacity="1" fill="#65617d" fill-opacity="1"></use><g><use xlink:href="#c1IIgcFRKC" opacity="1" fill-opacity="0" stroke="#000000" stroke-width="1" stroke-opacity="0"></use></g></g><g><use xlink:href="#b3oZTag7fu" opacity="1" fill="#000000" fill-opacity="1"></use><g><use xlink:href="#b3oZTag7fu" opacity="1" fill-opacity="0" stroke="#000000" stroke-width="1" stroke-opacity="0"></use></g></g><g><use xlink:href="#b5DSpHFtEF" opacity="1" fill="#d4dfec" fill-opacity="1"></use><g><use xlink:href="#b5DSpHFtEF" opacity="1" fill-opacity="0" stroke="#000000" stroke-width="1" stroke-opacity="0"></use></g></g><g><use xlink:href="#b5cyAhDTY" opacity="1" fill="#000000" fill-opacity="1"></use><g><use xlink:href="#b5cyAhDTY" opacity="1" fill-opacity="0" stroke="#000000" stroke-width="1" stroke-opacity="0"></use></g></g><g><use xlink:href="#abcwzDPbq" opacity="1" fill="#000000" fill-opacity="1"></use><g><use xlink:href="#abcwzDPbq" opacity="1" fill-opacity="0" stroke="#000000" stroke-width="1" stroke-opacity="0"></use></g></g><g><use xlink:href="#cbN1pXpZl" opacity="1" fill="#65617d" fill-opacity="1"></use><g><use xlink:href="#cbN1pXpZl" opacity="1" fill-opacity="0" stroke="#000000" stroke-width="1" stroke-opacity="0"></use></g></g><g><use xlink:href="#a2T1pMA3VB" opacity="1" fill="#000000" fill-opacity="1"></use><g><use xlink:href="#a2T1pMA3VB" opacity="1" fill-opacity="0" stroke="#000000" stroke-width="1" stroke-opacity="0"></use></g></g><g><use xlink:href="#a111xYszKA" opacity="1" fill="#d4dfec" fill-opacity="1"></use><g><use xlink:href="#a111xYszKA" opacity="1" fill-opacity="0" stroke="#000000" stroke-width="1" stroke-opacity="0"></use></g></g><g><use xlink:href="#e1FyNQjBap" opacity="1" fill="#65617d" fill-opacity="1"></use><g><use xlink:href="#e1FyNQjBap" opacity="1" fill-opacity="0" stroke="#000000" stroke-width="1" stroke-opacity="0"></use></g></g><g><use xlink:href="#b26NcYSdVG" opacity="1" fill="#d4dfec" fill-opacity="1"></use><g><use xlink:href="#b26NcYSdVG" opacity="1" fill-opacity="0" stroke="#000000" stroke-width="1" stroke-opacity="0"></use></g></g><g><use xlink:href="#b2TY1kY0Kr" opacity="1" fill="#000000" fill-opacity="1"></use><g><use xlink:href="#b2TY1kY0Kr" opacity="1" fill-opacity="0" stroke="#000000" stroke-width="1" stroke-opacity="0"></use></g></g><g><use xlink:href="#af5K85c1K" opacity="1" fill="#fbbebe" fill-opacity="1"></use><g><use xlink:href="#af5K85c1K" opacity="1" fill-opacity="0" stroke="#000000" stroke-width="1" stroke-opacity="0"></use></g></g><g><use xlink:href="#bo0NFTdI" opacity="1" fill="url(#gradientaaorN9q6i)"></use><g><use xlink:href="#bo0NFTdI" opacity="1" fill-opacity="0" stroke="#000000" stroke-width="1" stroke-opacity="0"></use></g></g><g><use xlink:href="#d26BbaRDwf" opacity="1" fill="#fbbebe" fill-opacity="1"></use><g><use xlink:href="#d26BbaRDwf" opacity="1" fill-opacity="0" stroke="#000000" stroke-width="1" stroke-opacity="0"></use></g></g><g><use xlink:href="#c11rndla4A" opacity="1" fill="#000000" fill-opacity="1"></use><g><use xlink:href="#c11rndla4A" opacity="1" fill-opacity="0" stroke="#000000" stroke-width="1" stroke-opacity="0"></use></g></g><g><use xlink:href="#o1VUyisxdQ" opacity="1" fill="#c60004" fill-opacity="1"></use><g><use xlink:href="#o1VUyisxdQ" opacity="1" fill-opacity="0" stroke="#000000" stroke-width="1" stroke-opacity="0"></use></g></g><g><use xlink:href="#b4aMxZOCy" opacity="1" fill="#000000" fill-opacity="1"></use><g><use xlink:href="#b4aMxZOCy" opacity="1" fill-opacity="0" stroke="#000000" stroke-width="1" stroke-opacity="0"></use></g></g><g><use xlink:href="#f8fRiJ0Mc" opacity="1" fill="#000000" fill-opacity="1"></use><g><use xlink:href="#f8fRiJ0Mc" opacity="1" fill-opacity="0" stroke="#000000" stroke-width="1" stroke-opacity="0"></use></g></g><g><use xlink:href="#b15qTLo3wa" opacity="1" fill="#000000" fill-opacity="1"></use><g><use xlink:href="#b15qTLo3wa" opacity="1" fill-opacity="0" stroke="#000000" stroke-width="1" stroke-opacity="0"></use></g></g><g><use xlink:href="#c3avPiNkuB" opacity="1" fill="#900000" fill-opacity="1"></use><g><use xlink:href="#c3avPiNkuB" opacity="1" fill-opacity="0" stroke="#000000" stroke-width="1" stroke-opacity="0"></use></g></g><g><use xlink:href="#a9Pvp9S3V" opacity="1" fill="#fbbebe" fill-opacity="1"></use><g><use xlink:href="#a9Pvp9S3V" opacity="1" fill-opacity="0" stroke="#000000" stroke-width="1" stroke-opacity="0"></use></g></g><g><use xlink:href="#b21kxjk36m" opacity="1" fill="#000000" fill-opacity="1"></use><g><use xlink:href="#b21kxjk36m" opacity="1" fill-opacity="0" stroke="#000000" stroke-width="1" stroke-opacity="0"></use></g></g><g><use xlink:href="#b1g15VrsPS" opacity="1" fill="#3f3d56" fill-opacity="1"></use><g><use xlink:href="#b1g15VrsPS" opacity="1" fill-opacity="0" stroke="#000000" stroke-width="1" stroke-opacity="0"></use></g></g><g><use xlink:href="#drRjal1iz" opacity="1" fill="#c91010" fill-opacity="1"></use><g><use xlink:href="#drRjal1iz" opacity="1" fill-opacity="0" stroke="#000000" stroke-width="1" stroke-opacity="0"></use></g></g><g><use xlink:href="#b1RQoZaXoL" opacity="1" fill="#000000" fill-opacity="1"></use><g><use xlink:href="#b1RQoZaXoL" opacity="1" fill-opacity="0" stroke="#000000" stroke-width="1" stroke-opacity="0"></use></g></g><g><use xlink:href="#b2MCoenPU" opacity="1" fill="#3f3d56" fill-opacity="1"></use><g><use xlink:href="#b2MCoenPU" opacity="1" fill-opacity="0" stroke="#000000" stroke-width="1" stroke-opacity="0"></use></g></g><g><use xlink:href="#b6MlLWo47" opacity="1" fill="#000000" fill-opacity="1"></use><g><use xlink:href="#b6MlLWo47" opacity="1" fill-opacity="0" stroke="#000000" stroke-width="1" stroke-opacity="0"></use></g></g><g><use xlink:href="#f1tTNFW9vw" opacity="1" fill="#000000" fill-opacity="1"></use><g><use xlink:href="#f1tTNFW9vw" opacity="1" fill-opacity="0" stroke="#000000" stroke-width="1" stroke-opacity="0"></use></g></g><g><use xlink:href="#c6JvmocwtE" opacity="1" fill="#3f3d56" fill-opacity="1"></use><g><use xlink:href="#c6JvmocwtE" opacity="1" fill-opacity="0" stroke="#000000" stroke-width="1" stroke-opacity="0"></use></g></g><g><use xlink:href="#c2fcFbW6Xt" opacity="1" fill="#000000" fill-opacity="1"></use><g><use xlink:href="#c2fcFbW6Xt" opacity="1" fill-opacity="0" stroke="#000000" stroke-width="1" stroke-opacity="0"></use></g></g><g><use xlink:href="#bRivhwloZ" opacity="1" fill="#3f3d56" fill-opacity="1"></use><g><use xlink:href="#bRivhwloZ" opacity="1" fill-opacity="0" stroke="#000000" stroke-width="1" stroke-opacity="0"></use></g></g><g><use xlink:href="#e1qa2Vut0" opacity="1" fill="#000000" fill-opacity="1"></use><g><use xlink:href="#e1qa2Vut0" opacity="1" fill-opacity="0" stroke="#000000" stroke-width="1" stroke-opacity="0"></use></g></g><g><use xlink:href="#c22IkWS2T0" opacity="1" fill="#000000" fill-opacity="1"></use><g><use xlink:href="#c22IkWS2T0" opacity="1" fill-opacity="0" stroke="#000000" stroke-width="1" stroke-opacity="0"></use></g></g><g><use xlink:href="#b1KpNDZqYx" opacity="1" fill="#000000" fill-opacity="1"></use><g><use xlink:href="#b1KpNDZqYx" opacity="1" fill-opacity="0" stroke="#000000" stroke-width="1" stroke-opacity="0"></use></g></g><g><use xlink:href="#cwKTh81nE" opacity="1" fill="#000000" fill-opacity="1"></use><g><use xlink:href="#cwKTh81nE" opacity="1" fill-opacity="0" stroke="#000000" stroke-width="1" stroke-opacity="0"></use></g></g><g><use xlink:href="#a6wJj4JCn0" opacity="1" fill="#000000" fill-opacity="1"></use><g><use xlink:href="#a6wJj4JCn0" opacity="1" fill-opacity="0" stroke="#000000" stroke-width="1" stroke-opacity="0"></use></g></g><g><use xlink:href="#a2F0rpiELg" opacity="1" fill="#000000" fill-opacity="1"></use><g><use xlink:href="#a2F0rpiELg" opacity="1" fill-opacity="0" stroke="#000000" stroke-width="1" stroke-opacity="0"></use></g></g><g><use xlink:href="#a2h6Am7tV3" opacity="1" fill="#000000" fill-opacity="1"></use><g><use xlink:href="#a2h6Am7tV3" opacity="1" fill-opacity="0" stroke="#000000" stroke-width="1" stroke-opacity="0"></use></g></g><g><use xlink:href="#c1sHX4Gua6" opacity="1" fill="#000000" fill-opacity="1"></use><g><use xlink:href="#c1sHX4Gua6" opacity="1" fill-opacity="0" stroke="#000000" stroke-width="1" stroke-opacity="0"></use></g></g><g><use xlink:href="#a1kn8X4H0l" opacity="1" fill="#000000" fill-opacity="1"></use><g><use xlink:href="#a1kn8X4H0l" opacity="1" fill-opacity="0" stroke="#000000" stroke-width="1" stroke-opacity="0"></use></g></g><g><use xlink:href="#bQnTeBRI" opacity="1" fill="#000000" fill-opacity="1"></use><g><use xlink:href="#bQnTeBRI" opacity="1" fill-opacity="0" stroke="#000000" stroke-width="1" stroke-opacity="0"></use></g></g><g><use xlink:href="#cHBtWdpuq" opacity="1" fill="#000000" fill-opacity="1"></use><g><use xlink:href="#cHBtWdpuq" opacity="1" fill-opacity="0" stroke="#000000" stroke-width="1" stroke-opacity="0"></use></g></g><g><use xlink:href="#c5fGz0UCMB" opacity="1" fill="#000000" fill-opacity="0"></use><g><use xlink:href="#c5fGz0UCMB" opacity="1" fill-opacity="0" stroke="#6c63ff" stroke-width="2" stroke-opacity="1"></use></g></g><g><use xlink:href="#d4TspEQhP" opacity="1" fill="#000000" fill-opacity="0"></use><g><use xlink:href="#d4TspEQhP" opacity="1" fill-opacity="0" stroke="#6c63ff" stroke-width="2" stroke-opacity="1"></use></g></g><g><use xlink:href="#bJ1nmpS60" opacity="1" fill="#000000" fill-opacity="0"></use><g><use xlink:href="#bJ1nmpS60" opacity="1" fill-opacity="0" stroke="#6c63ff" stroke-width="2" stroke-opacity="1"></use></g></g></g></g></svg>