<?xml version="1.0" encoding="UTF-8" standalone="no"?>
<!DOCTYPE svg PUBLIC "-//W3C//DTD SVG 1.1//EN" "http://www.w3.org/Graphics/SVG/1.1/DTD/svg11.dtd">
<svg version="1.1" xmlns="http://www.w3.org/2000/svg" xmlns:xlink="http://www.w3.org/1999/xlink" preserveAspectRatio="xMidYMid meet" viewBox="0 0 1500 1500" width="1500" height="1500"><defs><path d="M603.26 568.96C519.82 541.24 437.06 510.4 347.44 495.69C289.8 486.22 223.88 484.89 177.45 511.35C132.75 536.87 118.3 580.79 110.54 621.6C104.7 652.29 101.27 684.59 117.27 713.32C128.39 733.28 148.11 750.04 161.76 769.16C209.24 835.65 175.67 917.64 124.23 982.56C100.12 1013.03 72.1 1042.1 53.47 1074.5C34.85 1106.89 26.24 1144.06 42.54 1177.14C58.68 1209.94 97.17 1234.54 138.86 1251.85C223.54 1287.02 323.28 1297.09 420.61 1302.79C636 1315.41 852.53 1309.95 1068.48 1304.48C1148.41 1302.45 1228.67 1300.4 1307.29 1289.81C1350.96 1283.93 1396.03 1274.6 1427.74 1252.08C1467.97 1223.49 1477.94 1175.07 1450.97 1139.23C1405.75 1079.09 1280.74 1064.16 1249.09 999.61C1231.7 964.09 1249.56 924.52 1274.85 891.58C1329.1 820.91 1420.02 758.9 1424.8 678.11C1428.09 622.63 1384.38 567.06 1316.8 540.8C1245.97 513.28 1147.73 516.75 1095.49 562.3C1041.62 609.15 947.04 627.2 865.96 624.85C774.15 622.06 686.7 596.67 603.26 568.96Z" id="a3LHyvuGo"></path><path d="M484.52 1014.04C482.43 1014.04 480.74 1015.77 480.74 1017.9C480.74 1020.03 482.43 1021.76 484.52 1021.76C486.6 1021.76 488.29 1020.03 488.29 1017.9C488.29 1015.77 486.6 1014.04 484.52 1014.04Z" id="a4hT0638uH"></path><path d="M493.32 1055.21C491.24 1055.21 489.55 1056.94 489.55 1059.07C489.55 1061.2 491.24 1062.93 493.32 1062.93C495.41 1062.93 497.09 1061.2 497.09 1059.07C497.09 1056.94 495.41 1055.21 493.32 1055.21Z" id="a2PxDkopV"></path><path d="M563.89 1124.18C563.89 1124.18 512.51 1097.9 507.84 1109.84C507.84 1109.84 444.81 1162.39 484.48 1169.56C484.48 1169.56 577.9 1179.11 589.59 1174.34C601.27 1169.56 608.27 1140.9 608.27 1140.9C599.4 1137.55 573.23 1133.74 563.89 1124.18Z" id="bd3Lh06Pt"></path><path d="M589.59 1169.9C598.46 1166.26 604.68 1148.78 607.1 1140.65C607.22 1140.67 608.16 1140.87 608.27 1140.89C608.27 1140.89 601.27 1169.55 589.63 1174.33C589.63 1174.33 524.23 1176.71 484.52 1169.55C473.06 1167.48 469.79 1162.62 471.02 1156.48C471.96 1160.5 475.95 1163.59 484.48 1165.12C524.19 1172.28 577.9 1174.67 589.59 1169.9Z" id="c1xbLn2Vp"></path><path d="M582.6 983.79C586.35 986.56 592.32 986.5 595.19 982.78C596.15 981.39 596.86 979.83 597.28 978.18C599.7 970.45 601.41 961.99 598.76 954.34C592.79 953.94 585.87 951.1 581.39 956.1C577.77 960.17 576.29 966.04 576.7 971.47C577.06 976.16 578.85 981.02 582.6 983.79Z" id="b4L7SdPYfD"></path><path d="M602.42 944.66C602.47 947.31 602.75 949.94 602.75 952.6C602.76 959.52 600.97 966.31 597.54 972.29C597.18 972.99 596.7 973.63 596.12 974.16C594.74 975.28 592.68 975.19 591.14 974.33C589.63 973.38 588.41 972.03 587.6 970.44C583.28 962.95 583.16 953.86 581.45 945.37C580.14 938.88 577.85 932.58 577.02 926.01C576.48 921.79 576.57 917.47 575.71 913.3C575.45 912.04 574.72 910.14 574.24 908.28C573.8 906.62 573.55 904.99 574.01 903.87C574.93 901.58 577.94 902.47 579.91 902.61C586.82 903.13 593.76 903.11 600.67 902.56C601.36 902.51 602.13 902.48 602.61 902.97C602.82 903.22 602.98 903.51 603.08 903.82C603.63 905.34 604.05 906.91 604.33 908.51C605.29 913.62 605.02 918.98 604.42 924.18C603.63 931 602.28 937.79 602.42 944.66Z" id="a5wogRfjF"></path><path d="M600.69 902.56C597.37 902.83 594.05 902.96 590.74 902.98C594.41 902.99 598.09 902.85 601.76 902.56C601.28 902.53 600.92 902.53 600.69 902.56Z" id="e1gTNhZHlM"></path><path d="M588.77 970.44C584.45 962.95 584.33 953.86 582.62 945.37C581.31 938.88 579.02 932.58 578.19 926.01C577.65 921.79 577.74 917.47 576.88 913.3C576.62 912.04 575.89 910.14 575.41 908.28C574.97 906.62 574.72 904.99 575.18 903.87C575.57 902.93 576.48 902.33 577.49 902.35C576.03 902.25 574.6 902.42 574.02 903.87C573.57 904.99 573.81 906.62 574.25 908.28C574.73 910.14 575.46 912.04 575.72 913.3C576.58 917.47 576.5 921.79 577.03 926.01C577.86 932.59 580.16 938.88 581.46 945.37C583.17 953.86 583.29 962.97 587.61 970.44C588.42 972.03 589.64 973.38 591.15 974.33C592.07 974.84 593.13 975.06 594.18 974.95C593.52 974.86 592.89 974.65 592.31 974.33C590.8 973.38 589.58 972.03 588.77 970.44Z" id="b1qtx7SwIq"></path><path d="M623.42 977.16C624 1000.62 614.74 1049.89 614.74 1049.89C613.92 1049.89 607.44 1049.89 606.63 1049.89C606.63 1049.89 605.47 995.34 606.63 990.65C606.63 990.65 606.05 969.53 604.31 946.66C603.02 929.65 606.53 914.24 608.42 907.47C609.07 905.13 609.52 903.84 609.52 903.84C609.52 903.84 622.84 883.9 630.37 893.29C632.11 895.47 633.03 899.87 633.35 905.43C634.38 923.78 628.98 954.75 626.32 960.15C622.84 967.19 624 973.76 623.42 977.16Z" id="aaYDyfXQ"></path><path d="M630.37 893.29C628.69 891.2 626.72 890.56 624.68 890.84C626.26 891.11 627.68 891.98 628.63 893.29C630.37 895.47 631.29 899.87 631.61 905.43C632.64 923.78 627.24 954.75 624.58 960.15C621.11 967.19 621.68 977.16 621.68 977.16C622.26 1000.62 613 1049.89 613 1049.89C613.17 1049.89 614.56 1049.89 614.74 1049.89C614.74 1049.89 624 1000.62 623.42 977.16C623.42 977.16 622.84 967.19 626.32 960.15C628.98 954.75 634.38 923.78 633.35 905.43C633.03 899.87 632.12 895.46 630.37 893.29Z" id="a8cyCMF8c8"></path><path d="M600.76 1049.58C599.72 1051.56 601.19 1053.93 602.76 1055.51C604.34 1057.09 606.24 1058.77 606.24 1061.02C606.24 1062.83 604.89 1064.38 603.38 1065.34C602.57 1065.85 601.55 1066.51 601.72 1067.48C601.78 1067.73 601.88 1067.96 602.02 1068.17C603.32 1070.18 605.62 1071.36 607.95 1071.81C610.28 1072.25 612.68 1072.06 615.05 1071.87C615.4 1071.88 615.75 1071.76 616.02 1071.53C616.19 1071.29 616.28 1071.01 616.28 1070.72C616.4 1069.47 616.32 1068.16 616.86 1067.04C617.61 1065.51 619.35 1064.73 620.34 1063.36C621.73 1061.48 621.53 1058.87 621.01 1056.59C619.85 1051.62 617.27 1045.95 613.4 1042.51C608.92 1038.56 605.41 1044.89 602.41 1047.75C601.76 1048.26 601.21 1048.88 600.76 1049.58Z" id="a15RLfFJ8O"></path><path d="M619.05 735.51C615.75 730.64 610.44 727.58 604.97 725.6C597.59 722.94 589.46 722.03 581.88 724.03C575.84 725.62 570.42 728.95 564.73 731.52C554.67 736.06 543.73 738.27 532.72 737.97C520.49 737.62 507.1 734.45 496.84 741.22C478.07 753.59 486.42 787.25 468.66 801.04C463.87 804.76 457.84 806.39 452.51 809.25C447.18 812.12 442.13 817.11 442.26 823.22C442.32 826.16 443.59 828.96 445.16 831.44C451.82 842.13 464.27 848.74 476.74 848.62C489.2 848.5 501.37 841.78 508.56 831.45C510.36 828.86 511.95 825.98 514.56 824.26C519.77 820.8 526.64 823.22 532.86 823.74C546.71 824.88 560.56 814.35 563.32 800.54C564.47 794.64 564.27 787.6 568.96 783.9C572.74 780.91 578.06 781.55 582.85 781.04C591.62 780.12 598.54 774.59 603.3 767.36C605.49 764.05 605.74 760.09 608.72 757.48C611.93 754.61 616.89 756.73 619.96 752.11C623.19 747.22 622.35 740.38 619.05 735.51Z" id="fjnCiAVfE"></path><path d="M536.29 737.93C534.92 737.97 533.53 737.97 532.14 737.93C522.54 737.66 512.23 735.65 503.28 738.07C509.18 738.13 515.29 738.93 521.14 739.1C526.22 739.24 531.3 738.85 536.29 737.93Z" id="n3IVu74SyS"></path><path d="M496.97 832.62C491.43 840.48 483.34 846.13 474.11 848.57C474.78 848.6 475.46 848.62 476.15 848.62C488.63 848.49 500.78 841.78 507.97 831.44C509.77 828.86 511.36 825.98 513.97 824.25C514.01 824.22 514.37 824 514.42 823.97C510.33 823.4 506.32 823.2 502.96 825.42C500.35 827.15 498.77 830.03 496.97 832.62Z" id="a1id2E72JB"></path><path d="M604.39 725.59C597.01 722.92 588.87 722.01 581.29 724.01C581.12 724.05 580.95 724.11 580.78 724.15C585.08 724.4 589.33 725.27 593.38 726.76C598.86 728.73 604.17 731.82 607.46 736.66C610.76 741.51 611.6 748.4 608.37 753.26C605.3 757.9 600.34 755.79 597.09 758.64C594.11 761.25 593.86 765.21 591.67 768.53C587.58 774.72 581.88 779.67 574.79 781.55C577.23 781.25 579.8 781.29 582.23 781.03C591 780.11 597.92 774.58 602.68 767.35C604.86 764.04 605.12 760.08 608.09 757.47C611.34 754.61 616.3 756.73 619.37 752.09C622.61 747.2 621.77 740.34 618.46 735.49C615.17 730.65 609.86 727.56 604.39 725.59Z" id="aqiWWpQ29"></path><path d="M557.33 785.06C552.65 788.76 552.87 795.8 551.69 801.7C549.66 812 541.4 820.5 531.6 823.66C531.67 823.67 532.22 823.72 532.29 823.73C546.13 824.87 559.99 814.34 562.74 800.53C563.9 794.64 563.7 787.59 568.38 783.89C569.46 783.08 570.68 782.48 571.98 782.13C571.72 782.14 571.48 782.18 571.23 782.2C566.47 782.71 561.14 782.07 557.33 785.06Z" id="b17lsl1ubT"></path><path d="M692.63 769.82C692.63 769.82 645.72 796.22 639.93 796.8C638.37 797.02 636.93 797.72 635.79 798.82C632.52 801.75 630.66 806.77 630.66 806.77C630.66 806.77 632.98 822.61 630.08 849C630.02 849.51 629.97 850.02 629.93 850.52C627.4 875.63 632.69 881.56 632.69 881.56C632.69 881.56 576.51 903.26 578.25 875.1C578.8 866.24 578.71 859.77 578.18 854.35C577.59 848.81 576.47 843.34 574.85 838.01C573.48 833.15 571.84 827.82 570.14 820.56C569.33 816.93 568.25 813.38 566.92 809.91C566.88 809.8 566.84 809.7 566.81 809.6C563.91 802.32 561.02 799.97 559.36 799.21C557.8 798.52 556.31 797.67 554.91 796.67C549.56 792.76 538.08 783.99 527.85 773.63C513.95 759.56 500.05 726.12 500.05 726.12C500.05 726.12 496 706.77 505.26 690.93C514.53 675.1 510.48 722.02 510.48 722.02C510.48 722.02 527.27 744.89 531.32 755.45C533.41 760.88 536.72 763.66 539.43 765.11C543.91 767.47 548.2 770.18 552.25 773.22C555 775.32 557.88 777.23 560.88 778.92C567.35 782.44 575.11 786.41 581.57 787.46C582.58 787.63 583.6 787.72 584.62 787.72C585.6 787.75 586.55 787.32 587.17 786.55C588.91 784.48 588.87 780.02 588.47 776.36C588.25 774.46 587.94 772.57 587.52 770.71C587.52 770.71 606.34 758.68 605.76 773.35C605.67 774.97 605.82 776.59 606.2 778.17C606.83 781.11 608.97 783.49 611.81 784.38C614.07 785.06 616.46 785.13 618.76 784.61C619.48 784.49 620.17 784.25 620.81 783.9C622.55 782.73 639.92 777.45 645.13 776.87C650.35 776.28 676.41 763.38 676.41 763.38C679.24 759.39 701.95 727.48 704.78 723.49C704.78 723.49 704.2 700.03 715.79 690.65C727.37 681.26 711.16 731.11 711.16 731.11C707.45 738.85 697.26 759.26 692.63 769.82Z" id="btNzBRJuD"></path><path d="M629.26 861.19C629.32 858.09 629.52 854.56 629.93 850.52C629.97 850.02 630.02 849.51 630.08 849C631.1 839.97 631.58 830.88 631.53 821.79C631.44 829.71 630.96 837.62 630.08 845.48C630.05 845.99 629.97 846.5 629.93 847C629.42 851.71 629.2 856.45 629.26 861.19Z" id="c3aOY4Rizt"></path><path d="M587.54 770.7C588.1 773.21 588.47 775.76 588.65 778.33C588.77 775.65 588.59 772.97 588.12 770.33C587.73 770.56 587.66 770.63 587.54 770.7Z" id="ajINapyAy"></path><path d="M510.75 718.83C511.03 714.73 511.45 707.37 511.37 700.82C511.28 709.57 510.51 718.5 510.51 718.5C510.55 718.57 510.7 718.77 510.75 718.83Z" id="c4nlCPKa6"></path><path d="M578.25 875.1C576.51 903.26 632.69 881.56 632.69 881.56C632.03 880.66 631.54 879.65 631.22 878.58C622.76 881.63 580.24 895.81 578.29 874.42C578.29 874.65 578.29 874.87 578.25 875.1Z" id="gkVL8qzpF"></path><path d="M692.63 766.3C692.63 766.3 645.72 792.7 639.93 793.28C638.37 793.5 636.93 794.2 635.79 795.3C632.52 798.23 630.66 803.25 630.66 803.25C630.66 803.25 630.8 804.21 630.97 806.03C631.62 804.52 633.28 801.06 635.79 798.82C636.93 797.72 638.37 797.02 639.93 796.8C645.72 796.22 687.99 780.38 692.63 769.82C697.26 759.26 711.16 731.11 711.16 731.11C711.16 731.11 720.95 700.99 719.87 691.98C718.98 703.53 711.16 727.59 711.16 727.59C707.45 735.33 697.26 755.74 692.63 766.3Z" id="c7AFqUTbx"></path><path d="M574.85 834.49C573.48 829.63 571.84 824.3 570.14 817.04C569.33 813.41 568.25 809.86 566.92 806.39C566.88 806.29 566.84 806.18 566.81 806.08C563.91 798.8 561.02 796.45 559.36 795.69C557.8 795 556.31 794.15 554.91 793.15C549.56 789.24 538.08 780.47 527.85 770.11C513.95 756.04 500.05 722.61 500.05 722.61C499.54 719.78 499.25 716.92 499.19 714.05C499.05 718.1 499.34 722.14 500.05 726.12C500.05 726.12 513.95 759.56 527.85 773.63C538.08 783.99 549.56 792.76 554.91 796.67C556.32 797.67 557.82 798.52 559.39 799.21C561.04 799.97 563.93 802.32 566.84 809.6C566.88 809.7 566.92 809.8 566.96 809.91C568.28 813.38 569.35 816.93 570.16 820.56C571.86 827.82 573.5 833.15 574.87 838.01C576.49 843.34 577.6 848.81 578.19 854.35C578.44 856.8 578.58 859.47 578.62 862.48C578.69 858.59 578.54 854.7 578.18 850.83C577.59 845.29 576.47 839.82 574.85 834.49Z" id="b1tZoiPSgO"></path><path d="M633.22 829.98C632.34 832.44 632.33 835.12 632.17 837.73C631.94 841.39 631.39 845.03 630.53 848.59C630.39 849.25 630.19 849.89 629.95 850.52C629.78 850.94 629.55 851.33 629.27 851.69C628.96 852.07 628.6 852.41 628.19 852.68C627.57 853.1 626.92 853.46 626.23 853.77C618.17 857.58 609.38 860.94 600.58 859.63C596.86 858.97 593.26 857.75 589.91 855.99C586.72 854.43 583.12 852.57 579.82 853.87C579.82 853.87 579.82 853.87 579.82 853.87C579.31 854.13 578.77 854.3 578.2 854.38C578.1 854.38 577.99 854.37 577.88 854.35C576.79 854.14 576.79 850.42 576.54 849.33C575.59 845.11 575.45 841.7 574.88 838.04C574.58 836.02 574.11 834.02 573.48 832.08C571.17 824.98 570.47 817.41 570.47 809.98C570.47 809.61 567.86 809.98 566.99 809.94C566.77 809.94 566.65 809.9 566.7 809.83C566.75 809.76 566.81 809.69 566.88 809.63C567.18 809.38 567.53 809.2 567.91 809.11C567.98 809.09 568.53 808.92 568.6 808.9C572.18 807.88 576.13 807.45 578.8 804.9C581.58 802.26 582.28 798.06 582.15 794.21C582.12 792.97 581.52 789.97 581.62 787.48C582.63 787.64 583.65 787.73 584.67 787.74C585.66 787.77 586.6 787.34 587.22 786.57C588.19 788.46 589.02 790.42 589.72 792.43C590.71 794.88 591.46 797.46 592.9 799.68C595.22 803.29 599.49 805.67 603.74 805.31C607.99 804.94 611.95 801.63 612.71 797.39C613.37 793.66 611.83 788.3 611.86 784.43C614.12 785.1 616.51 785.18 618.81 784.66C618.91 784.9 618.99 785.14 619.06 785.39C620.36 789.92 622.1 795.12 626.47 796.73C629.3 797.76 632.64 796.98 635.25 798.48C635.45 798.6 635.65 798.73 635.83 798.87C636.44 799.33 636.96 799.88 637.37 800.52C638.44 802.31 639.08 804.34 639.23 806.43C639.9 812.97 638.61 819.56 635.53 825.35C634.65 826.83 633.87 828.38 633.22 829.98Z" id="b4MgXJRIu1"></path><path d="M588.47 776.35C588.25 774.45 587.94 772.56 587.52 770.7C587.52 770.7 606.34 758.68 605.76 773.34C605.67 774.96 605.82 776.59 606.2 778.16C600.34 780.45 593.76 779.78 588.47 776.35Z" id="bgb3OLaDV"></path><path d="M599.09 738.44C588.22 738.44 579.4 747.37 579.4 758.38C579.4 769.4 588.22 778.33 599.09 778.33C609.97 778.33 618.78 769.4 618.78 758.38C618.78 747.37 609.97 738.44 599.09 738.44Z" id="auVzYGoh8"></path><path d="M564.64 807.95C564.64 807.95 602.86 783.31 721.58 809.71C721.58 809.71 909.22 814.98 909.22 814.98C909.22 817.74 909.22 839.79 909.22 842.55C909.22 842.55 776.02 857.21 725.06 842.55C725.06 842.55 601.55 819.43 576.14 842.13C573.84 835.3 566.94 814.78 564.64 807.95Z" id="a3s2sZEDzD"></path><path d="M564.64 807.95C564.64 807.95 602.86 783.31 721.58 809.71C721.58 809.71 909.22 814.98 909.22 814.98C909.22 817.74 909.22 839.79 909.22 842.55C909.22 842.55 776.02 857.21 725.06 842.55C725.06 842.55 601.55 819.43 576.14 842.13C573.84 835.3 566.94 814.78 564.64 807.95Z" id="a2gEJ2gaGI"></path><path d="M565.8 809.12C565.8 809.12 602.86 784.48 721.58 810.88C721.58 810.88 908.06 816.16 908.06 816.16C908.12 818.68 908.58 838.86 908.64 841.38C908.64 841.38 776.6 856.04 725.64 841.38C725.64 841.38 602.71 816.5 577.3 839.2C575 833.19 568.1 815.14 565.8 809.12Z" id="b4yIIbzkqZ"></path><path d="M551.87 847.01C551.87 847.01 513.64 871.64 394.92 845.25C394.92 845.25 282 839.97 282 839.97C282 837.21 282 815.16 282 812.4C282 812.4 340.49 797.74 391.45 812.4C391.45 812.4 514.96 835.52 540.36 812.82C542.66 819.66 549.57 840.17 551.87 847.01Z" id="b7qFczEUKN"></path><path d="M551.87 847.01C551.87 847.01 513.64 871.64 394.92 845.25C394.92 845.25 282 839.97 282 839.97C282 837.21 282 815.16 282 812.4C282 812.4 340.49 797.74 391.45 812.4C391.45 812.4 514.96 835.52 540.36 812.82C542.66 819.66 549.57 840.17 551.87 847.01Z" id="cLkiZc0u5"></path><path d="M550.71 845.84C550.71 845.84 513.64 870.47 394.92 844.08C394.92 844.08 283.15 838.8 283.15 838.8C283.1 836.28 282.63 816.1 282.57 813.58C282.57 813.58 339.91 798.91 390.87 813.58C390.87 813.58 513.8 838.46 539.21 815.75C541.51 821.77 548.41 839.82 550.71 845.84Z" id="a1xF4KiUMs"></path><path d="M583.71 751.32C584.79 750.66 586.04 750.33 587.3 750.38C593.56 750.32 599.54 754.74 605.68 753.45C611.28 752.26 614.87 746.7 613.69 741.02C613.17 738.51 611.76 736.28 609.73 734.75C607.32 732.93 604.26 732.28 601.31 731.66C593.55 730.04 585.44 728.43 577.77 730.49C570.1 732.55 563.1 739.51 563.71 747.5C564 751.32 565.92 754.79 567.93 758.06C569.46 760.53 575.41 772.13 578.3 772.31C582.38 772.55 582.56 764.08 582.16 761.69C581.58 758.03 580.69 753.42 583.71 751.32Z" id="c3BWT1d7k8"></path><path d="M577.67 871.58C577.67 871.58 571.88 894.46 573.62 906.19C573.62 906.19 601.99 907.95 604.89 909.71C604.89 909.71 605.47 905.02 608.37 907.36C608.37 907.36 618.21 895.63 636.16 906.19C636.16 906.19 639.64 878.62 630.95 871.58C620.29 871.58 590.99 881.56 577.67 871.58Z" id="jeJzZW5hI"></path><path d="M608.45 733.93C612.22 738.27 611.8 744.89 607.52 748.71C606.17 749.91 604.54 750.73 602.78 751.1C596.64 752.39 590.66 747.97 584.4 748.04C583.14 747.99 581.89 748.31 580.82 748.98C577.79 751.07 578.68 755.68 579.26 759.34C579.64 761.73 579.48 770.2 575.42 769.97C575.41 769.97 575.36 769.97 575.35 769.97C576.47 771.35 577.51 772.28 578.31 772.32C582.37 772.55 582.54 764.11 582.15 761.69C581.57 758.03 580.69 753.42 583.71 751.32C584.79 750.66 586.04 750.33 587.3 750.38C593.56 750.32 599.54 754.74 605.68 753.45C611.28 752.26 614.87 746.7 613.69 741.02C613.17 738.51 611.76 736.28 609.73 734.75C609.33 734.45 608.9 734.18 608.45 733.93Z" id="e7kpuvaBkf"></path><path d="M273.15 721.71C273.15 721.71 270.19 726.89 274.31 731.17C274.31 731.17 275.2 728.88 279.38 731.25C280.88 732.08 282.46 732.74 284.11 733.19C286.33 733.81 288.69 733.69 290.84 732.83C290.84 732.83 290.84 732.83 290.84 732.83C290.84 732.83 305.08 732.05 317.06 713.18C317.06 713.18 322.19 709.97 322.45 708.76C321.59 708.82 314.72 709.29 313.86 709.35C313.86 709.35 314.52 715.71 310.97 719.53C310.97 719.53 314.12 709.66 312.61 709.38C312.3 709.32 308.07 709.89 308.07 709.89C308.07 709.89 309.17 720.95 303.44 726.68C303.44 726.68 308.76 715.42 306.44 710.09C305.81 710.21 300.74 711.2 300.11 711.33C300.11 711.33 301.85 722.96 295.58 729.74C295.58 729.74 300.73 717.77 298.74 711.69C298.14 711.9 293.28 713.55 292.67 713.75C292.67 713.75 294.14 725.15 288.9 730.76C288.9 730.76 293.47 716.33 291.32 714.34C291.32 714.34 285.86 716.58 284.69 717.86C284.69 717.86 285.56 726.07 282.23 729C282.23 729 284.28 719.03 283.26 718.62C283.26 718.62 276.92 723.46 274.99 727.63C274.99 727.63 277.4 721.26 282.46 717.66C282.46 717.66 278.21 716.93 274.94 718.73C274.94 718.73 277.13 714.5 284 716.51C284 716.51 289.09 712.94 290.11 712.99C290.11 712.99 283.61 710.05 278.91 710.41C278.91 710.41 283.95 707.48 291.7 712.38C292.31 712.16 297.14 710.39 297.75 710.17C297.75 710.17 289.36 705.81 285.15 705.83C285.15 705.83 290.74 703.64 299.32 709.74C299.94 709.61 304.89 708.58 305.51 708.45C305.51 708.45 298.56 704.14 293.88 703.14C293.88 703.14 299.5 702.24 307.3 708.16C307.73 708.12 311.12 707.83 311.54 707.8C311.54 707.8 306.41 704.74 304.86 704C304.86 704 303.38 702.76 303.38 702.76C307.07 703.41 310.51 705.09 313.32 707.61C313.32 707.61 322.09 707.44 322.13 706.89C312.33 709.86 278.83 688.45 273.15 721.71Z" id="f4Zba5l6ye"></path><path d="M283.1 654.38C283.1 654.38 278.43 655.75 278.47 660.66C278.47 660.66 280.29 659.81 281.43 663.63C281.86 664.99 282.45 666.29 283.17 667.51C284.13 669.16 285.59 670.44 287.33 671.17C287.33 671.17 287.33 671.17 287.33 671.17C287.33 671.17 296.23 678.92 313.97 674.62C313.97 674.62 318.83 675.68 319.67 675.11C319.12 674.65 314.78 670.96 314.24 670.5C314.24 670.5 311.06 674.66 306.78 674.86C306.78 674.86 314.21 670.82 313.46 669.77C313.31 669.56 310.49 667.46 310.49 667.46C310.49 667.46 304.91 674.66 298.33 674.77C298.33 674.77 307.82 671.15 309.44 666.65C308.99 666.36 305.43 664.01 304.99 663.72C304.99 663.72 299.46 671.63 291.94 672.04C291.94 672.04 301.73 667.94 303.97 663.15C303.49 662.92 299.68 661.1 299.2 660.87C299.2 660.87 293.66 668.5 287.4 668.79C287.4 668.79 298.24 662.85 298.07 660.43C298.07 660.43 293.57 658.61 292.15 658.72C292.15 658.72 288.05 664.08 284.4 663.93C284.4 663.93 291.23 659.18 290.85 658.36C290.85 658.36 284.36 657.57 280.87 658.94C280.87 658.94 285.89 656.55 290.92 657.34C290.92 657.34 288.81 654.45 285.86 653.64C285.86 653.64 289.54 652.39 292.49 657.55C292.49 657.55 297.52 658.36 298.11 658.97C298.11 658.97 295.91 653.47 292.89 650.98C292.89 650.98 297.53 652.16 299.38 659.53C299.86 659.75 303.73 661.49 304.22 661.71C304.22 661.71 301.69 654.28 299.14 651.86C299.14 651.86 303.7 653.79 305.37 662.36C305.81 662.64 309.32 664.89 309.76 665.17C309.76 665.17 308.06 658.6 305.84 655.33C305.84 655.33 309.69 658.03 311 666.05C311.27 666.28 313.45 668.06 313.72 668.28C313.72 668.28 312.39 663.51 311.88 662.17C311.88 662.17 311.7 660.59 311.7 660.59C313.52 663.11 314.63 666.09 314.88 669.2C314.88 669.2 320.22 674.14 320.53 673.84C313.04 669.94 305.16 637.9 283.1 654.38Z" id="c1wnUiltIU"></path><path d="M1338.75 1190.49C1338.75 1208.88 1242.07 1223.78 1122.8 1223.78C1003.54 1223.78 906.86 1208.88 906.86 1190.49C906.86 1172.11 1003.54 1157.21 1122.8 1157.21C1242.07 1157.21 1338.75 1172.11 1338.75 1190.49Z" id="cBShuYQAA"></path><path d="M1254.3 1057.86C1254.3 1057.86 1229.63 1092.3 1234.14 1103.95C1234.14 1103.95 1254.56 1069.26 1271.14 1068.77C1287.72 1068.28 1276.84 1047.67 1258.57 1026.81C1257.72 1033.02 1267.82 1039.19 1254.3 1057.86Z" id="a4FGwae6a"></path><path d="M1260.46 1030.69C1276.66 1050.15 1285.32 1068.32 1269.72 1068.82C1255.22 1069.24 1237.82 1095.77 1233.64 1102.47C1233.78 1102.99 1233.95 1103.5 1234.14 1104C1234.14 1104 1254.56 1069.31 1271.14 1068.82C1287.72 1068.33 1276.84 1047.67 1258.57 1026.81C1259.38 1028.01 1260.02 1029.31 1260.46 1030.69Z" id="i3XYbbZr74"></path><path d="M1274.7 1050.5C1274.12 1050.5 1273.64 1046.97 1273.64 1042.62C1273.64 1038.27 1274.23 1040.31 1274.83 1040.31C1275.42 1040.31 1275.77 1038.22 1275.77 1042.62C1275.77 1046.97 1275.29 1050.5 1274.7 1050.5Z" id="b42QqoU1Wr"></path><path d="M1274.39 1050.59C1274.11 1050.06 1276.91 1047.94 1280.61 1045.86C1284.3 1043.78 1282.87 1045.3 1283.15 1045.86C1283.44 1046.42 1285.41 1045.69 1281.67 1047.77C1277.93 1049.86 1274.68 1051.11 1274.39 1050.59Z" id="b16rZjuKYs"></path><path d="M1213.98 1057.86C1213.98 1057.86 1238.65 1092.3 1234.14 1103.95C1234.14 1103.95 1213.72 1069.26 1197.14 1068.77C1180.56 1068.28 1191.44 1047.67 1209.71 1026.81C1210.57 1033.02 1200.46 1039.19 1213.98 1057.86Z" id="ltElslWCo"></path><path d="M1207.82 1030.69C1191.62 1050.15 1182.96 1068.32 1198.56 1068.82C1213.07 1069.24 1230.47 1095.77 1234.64 1102.47C1234.5 1102.99 1234.34 1103.5 1234.14 1104C1234.14 1104 1213.72 1069.31 1197.14 1068.82C1180.56 1068.33 1191.44 1047.67 1209.71 1026.81C1208.91 1028.01 1208.27 1029.31 1207.82 1030.69Z" id="a6TXcMSMpy"></path><path d="M1193.57 1050.5C1194.16 1050.5 1194.64 1046.97 1194.64 1042.62C1194.64 1038.27 1194.04 1040.31 1193.45 1040.31C1192.85 1040.31 1192.51 1038.22 1192.51 1042.62C1192.51 1046.97 1192.99 1050.5 1193.57 1050.5Z" id="p4vG17yGhf"></path><path d="M1193.89 1050.59C1194.18 1050.06 1191.37 1047.94 1187.68 1045.86C1183.99 1043.78 1185.41 1045.3 1185.13 1045.86C1184.85 1046.42 1182.85 1045.69 1186.61 1047.77C1190.35 1049.86 1193.61 1051.11 1193.89 1050.59Z" id="a1LIFflSL3"></path><path d="M1229.12 1095.84C1229.12 1095.84 1268.9 1083.39 1270.84 1092.49C1270.84 1092.49 1309.71 1137.77 1280.51 1138.01C1280.51 1138.01 1212.66 1133.36 1204.87 1128.52C1197.09 1123.67 1195.46 1102.33 1195.46 1102.33C1202.19 1101.04 1221.32 1101.52 1229.12 1095.84Z" id="aXRg37xF9"></path><path d="M1205.4 1125.34C1199.48 1121.64 1197.12 1108.41 1196.33 1102.3C1196.24 1102.3 1195.53 1102.3 1195.44 1102.3C1195.44 1102.3 1197.08 1123.63 1204.86 1128.48C1204.86 1128.48 1251.28 1138.22 1280.49 1137.98C1288.92 1137.9 1291.83 1134.84 1291.67 1130.3C1290.51 1133.07 1287.3 1134.79 1281.03 1134.84C1251.83 1135.08 1213.18 1130.19 1205.4 1125.34Z" id="a3CEkQLahe"></path><path d="M800.97 606.94C807.86 607.75 814.39 606.03 820.7 603.05C827.02 600.07 832.87 596.18 838.78 592.38C841.1 590.88 843.42 589.41 845.73 588.05C849.39 585.89 853.02 583.51 856.74 581.41C862.06 578.41 867.5 575.96 873.48 575.49C874.55 575.41 875.65 575.39 876.74 575.41C884.11 575.56 891.74 577.58 898.22 574.2C898.26 574.18 898.58 574 898.62 573.98C902.29 571.92 904.97 568.41 908.12 565.58C910.38 563.57 912.85 561.82 915.48 560.35C920.25 557.62 925.44 555.45 930.34 552.88C931.59 552.21 932.78 551.43 933.89 550.54C933.94 550.5 934.22 550.27 934.72 549.86L934.91 549.7L935.51 549.17L935.89 548.83L936.29 548.46L936.59 548.17L937.08 547.7L937.13 547.65L937.91 546.86L938.22 546.54L938.76 545.98L939.08 545.64C940.06 544.61 940.61 544.04 940.71 543.92C941.35 543.26 942.01 542.61 942.69 541.97C942.69 541.97 942.69 541.97 942.69 541.97L943.32 541.39L943.51 541.23L944.03 540.78L944.27 540.57L944.78 540.18L945.03 539.98C945.49 539.64 945.74 539.45 945.79 539.41C946.03 539.25 946.28 539.1 946.54 538.98C946.43 538.7 945.9 537.32 944.94 534.84L949.72 532.82L1015.58 696.28L1010.8 698.29L973.12 604.79C972.96 604.95 972.87 605.04 972.85 605.06C964.12 613.86 953.43 620.37 941.7 624.01C941.69 624.01 941.64 624.01 941.63 624.01C935.07 626.04 927.73 627.47 922.21 631.28C920.25 632.58 918.55 634.24 917.19 636.19C915.89 638.08 914.99 640.23 913.6 642.04C913.34 642.38 913.05 642.71 912.77 643.01C911.15 644.65 909.37 646.09 907.44 647.33C907.35 647.39 906.64 647.86 906.56 647.92C900.84 652.04 894.88 655.8 888.71 659.17C885.16 661.07 881.45 662.65 877.62 663.9C874.85 664.8 871.98 665.47 869.2 666.36C867.33 666.94 865.51 667.69 863.77 668.6C859.06 671.11 855.45 675.05 852.03 679.26C849.04 682.94 846.2 686.84 842.91 690.2C840.86 692.29 837.73 694.26 835.24 693.04C835.06 692.95 834.9 692.85 834.74 692.74C834.81 692.6 834.88 692.46 834.94 692.32C836.91 688.12 834.49 682.92 831.24 679.55C830.9 679.2 830.56 678.86 830.2 678.52C829.85 678.18 829.22 677.61 828.7 677.16C825.92 674.72 822.97 672.45 821.04 669.3C819.57 666.65 818.58 663.76 818.09 660.75C817.21 656.48 816.62 652.08 814.35 648.43C812.85 646.03 810.64 643.98 809.02 641.67C808 640.31 807.33 638.71 807.07 637.01C806.7 634.05 808.05 631.17 808.55 628.23C808.7 627.42 808.76 626.61 808.73 625.79C808.55 623.62 807.84 621.54 806.65 619.73C804.14 615.53 800.38 611.69 800.97 606.94Z" id="a4Mow4HQwr"></path><linearGradient id="gradientc1XSO4iaY7" gradientUnits="userSpaceOnUse" x1="1015.56" y1="615.56" x2="800.91" y2="615.56"><stop style="stop-color: #808080;stop-opacity: 0.25" offset="0%"></stop><stop style="stop-color: #808080;stop-opacity: 0.12" offset="54%"></stop><stop style="stop-color: #808080;stop-opacity: 0.1" offset="100%"></stop></linearGradient><path d="M1009.08 696.97C1009.08 696.97 1009.08 696.97 1009.08 696.97C970.22 600.54 948.62 546.98 944.31 536.26C944.31 536.26 944.31 536.26 944.31 536.26C947.13 535.07 948.7 534.41 949.01 534.28C949.01 534.28 949.01 534.28 949.01 534.28C987.87 630.7 1009.46 684.27 1013.78 694.99C1013.78 694.99 1013.78 694.99 1013.78 694.99C1010.96 696.18 1009.39 696.84 1009.08 696.97Z" id="i6TIGuFaPM"></path><path d="M819.63 659.99C820.11 662.94 821.09 665.79 822.53 668.39C824.43 671.48 827.34 673.73 830.06 676.12C830.56 676.56 831.05 677.03 831.53 677.46C832.01 677.88 832.23 678.12 832.56 678.47C835.75 681.78 838.12 686.88 836.19 691.02C836.13 691.16 836.07 691.29 835.99 691.43C836.15 691.54 836.31 691.63 836.48 691.72C838.93 692.93 842.01 690.98 844.02 688.92C847.26 685.62 850.05 681.79 852.99 678.17C856.35 674.03 859.91 670.16 864.53 667.68C866.24 666.79 868.02 666.05 869.86 665.48C872.58 664.58 875.41 663.93 878.14 663.05C881.9 661.83 885.55 660.27 889.05 658.41C895.11 655.09 900.97 651.39 906.59 647.35C906.67 647.29 907.34 646.82 907.43 646.76C909.32 645.55 911.08 644.13 912.66 642.52C912.95 642.22 913.22 641.9 913.47 641.57C914.84 639.76 915.73 637.67 917.02 635.82C918.36 633.9 920.03 632.27 921.96 630.99C927.39 627.29 934.6 625.87 941.05 623.89C941.06 623.89 941.12 623.89 941.12 623.89C952.66 620.3 963.17 613.91 971.75 605.25C972.46 604.64 973 603.84 973.29 602.94C973.56 601.66 972.89 600.4 972.24 599.31C971.1 597.33 970.25 595.72 970.03 595.32C966.75 589.22 963.83 582.93 961.27 576.49C960.71 575.08 960.16 573.67 959.64 572.24C957.63 566.79 956.33 562.3 955.97 561.19C955.6 559.95 955.25 558.71 954.91 557.46C954.85 557.22 954.79 556.97 954.71 556.7C953.24 550.57 951.27 536.43 945.21 540.67C943.4 541.99 941.72 543.48 940.19 545.12C939.01 546.35 937.86 547.61 936.64 548.83C935.65 549.82 934.6 550.76 933.51 551.63C932.39 552.5 931.21 553.27 929.96 553.92C925.14 556.44 920.04 558.56 915.34 561.26C912.76 562.71 910.34 564.43 908.11 566.4C905.01 569.2 902.37 572.65 898.77 574.67C898.73 574.69 898.41 574.86 898.37 574.88C892 578.2 884.5 576.22 877.25 576.06C876.18 576.06 875.1 576.06 874.05 576.14C868.17 576.61 862.79 579.02 857.59 581.96C853.93 584.03 850.36 586.38 846.77 588.49C844.5 589.82 842.22 591.27 839.93 592.75C834.12 596.49 828.24 600.42 822.18 603.24C816.11 606.07 809.55 607.86 802.77 607.06C802.2 611.74 805.89 615.52 808.36 619.65C809.53 621.42 810.25 623.47 810.44 625.6C810.47 626.4 810.41 627.2 810.26 627.99C809.77 630.89 808.49 633.72 808.81 636.63C809.07 638.29 809.73 639.85 810.73 641.17C812.3 643.5 814.45 645.52 815.95 647.88C818.18 651.46 818.77 655.79 819.63 659.99Z" id="dexML0pCF"></path><path d="M938.44 563.67C948.2 559.46 953.62 557.13 954.71 556.66C953.24 550.57 951.27 536.43 945.21 540.67C940.81 543.74 937.84 548.23 933.49 551.64C934.15 553.25 935.8 557.25 938.44 563.67Z" id="h54gtWoQ2t"></path><path d="M900.89 579.82L919.66 571.74C917.07 565.45 915.63 561.96 915.34 561.26C912.76 562.71 910.34 564.43 908.11 566.4C904.99 569.21 902.39 572.66 898.78 574.68C899.06 575.37 899.77 577.08 900.89 579.82Z" id="aa5LBYsJV"></path><path d="M863.37 595.96L882.13 587.88C879.22 580.8 877.59 576.87 877.27 576.08C876.2 576.08 875.12 576.08 874.07 576.16C868.19 576.62 862.81 579.03 857.61 581.98C858.37 583.85 860.3 588.51 863.37 595.96Z" id="b3TqAtaBZD"></path><path d="M825.83 612.1L844.59 604.02C841.8 597.25 840.25 593.48 839.94 592.73C834.14 596.51 828.25 600.43 822.17 603.22C822.66 604.41 823.88 607.37 825.83 612.1Z" id="ea9CtFMY"></path><path d="M927.56 590.9C927.56 590.9 927.56 590.9 927.56 590.9C922.82 579.38 920.19 572.98 919.66 571.7C919.66 571.7 919.66 571.7 919.66 571.7C930.92 566.85 937.18 564.16 938.43 563.62C938.43 563.62 938.43 563.62 938.43 563.62C943.17 575.14 945.8 581.54 946.33 582.82C946.33 582.82 946.33 582.82 946.33 582.82C935.07 587.67 928.81 590.36 927.56 590.9Z" id="bfZ4vHdHJ"></path><path d="M890.02 607.05C890.02 607.05 890.02 607.05 890.02 607.05C885.29 595.53 882.65 589.13 882.13 587.85C882.13 587.85 882.13 587.85 882.13 587.85C893.39 583.01 899.65 580.31 900.9 579.78C900.9 579.78 900.9 579.78 900.9 579.78C905.64 591.29 908.27 597.69 908.79 598.97C908.79 598.97 908.79 598.97 908.79 598.97C897.53 603.82 891.28 606.51 890.02 607.05Z" id="a20EDvDHJm"></path><path d="M852.49 623.21C852.49 623.21 852.49 623.21 852.49 623.21C847.75 611.69 845.12 605.29 844.59 604.01C844.59 604.01 844.59 604.01 844.59 604.01C855.86 599.17 862.11 596.47 863.36 595.94C863.36 595.94 863.36 595.94 863.36 595.94C868.1 607.45 870.74 613.85 871.26 615.13C871.26 615.13 871.26 615.13 871.26 615.13C860 619.98 853.74 622.67 852.49 623.21Z" id="a2BGEhiS6t"></path><path d="M814.96 639.41L833.73 631.33L825.83 612.14C815.34 616.65 809.52 619.16 808.36 619.66C809.53 621.43 810.25 623.48 810.44 625.61C810.47 626.41 810.41 627.22 810.26 628.01C810.89 629.53 812.46 633.33 814.96 639.41Z" id="d3iaTq5ECo"></path><path d="M946.34 582.86L954.24 602.05C963.71 597.98 968.98 595.72 970.03 595.26C966.75 589.17 963.83 582.88 961.27 576.43C959.28 577.29 954.3 579.43 946.34 582.86Z" id="a1o61Ut0Yx"></path><path d="M916.7 618.17C916.7 618.17 916.7 618.17 916.7 618.17C911.96 606.65 909.32 600.25 908.8 598.97C908.8 598.97 908.8 598.97 908.8 598.97C920.06 594.13 926.32 591.43 927.57 590.9C927.57 590.9 927.57 590.9 927.57 590.9C932.31 602.41 934.94 608.81 935.47 610.09C935.47 610.09 935.47 610.09 935.47 610.09C924.2 614.94 917.95 617.63 916.7 618.17Z" id="fV3tO1RGi"></path><path d="M879.15 634.32C879.15 634.32 879.15 634.32 879.15 634.32C874.41 622.81 871.78 616.41 871.25 615.13C871.25 615.13 871.25 615.13 871.25 615.13C882.52 610.28 888.77 607.59 890.02 607.05C890.02 607.05 890.02 607.05 890.02 607.05C894.76 618.57 897.39 624.97 897.92 626.25C897.92 626.25 897.92 626.25 897.92 626.25C886.66 631.09 880.4 633.79 879.15 634.32Z" id="ho2xoY2PM"></path><path d="M841.62 650.49C841.62 650.49 841.62 650.49 841.62 650.49C836.88 638.98 834.25 632.58 833.72 631.3C833.72 631.3 833.72 631.3 833.72 631.3C844.98 626.45 851.24 623.76 852.49 623.22C852.49 623.22 852.49 623.22 852.49 623.22C857.23 634.74 859.86 641.14 860.39 642.42C860.39 642.42 860.39 642.42 860.39 642.42C849.13 647.26 842.87 649.95 841.62 650.49Z" id="a1M2QXThy"></path><path d="M935.47 610.13C938.86 618.37 940.75 622.95 941.12 623.87C947.65 621.84 953.88 618.9 959.62 615.14C959.26 614.26 957.47 609.9 954.23 602.04L935.47 610.13Z" id="fDqTuyGrS"></path><path d="M897.89 626.29L905.79 645.48C909.9 643.71 912.18 642.73 912.64 642.53C912.92 642.23 913.2 641.91 913.44 641.58C914.81 639.76 915.71 637.68 917 635.82C918.33 633.91 920 632.27 921.93 631C921.58 630.14 919.83 625.88 916.68 618.21L897.89 626.29Z" id="b1mDG2QODT"></path><path d="M868.29 661.6C868.29 661.6 868.29 661.6 868.29 661.6C863.56 650.08 860.92 643.68 860.4 642.4C860.4 642.4 860.4 642.4 860.4 642.4C871.66 637.55 877.92 634.86 879.17 634.32C879.17 634.32 879.17 634.32 879.17 634.32C883.91 645.84 886.54 652.24 887.06 653.52C887.06 653.52 887.06 653.52 887.06 653.52C875.8 658.36 869.55 661.06 868.29 661.6Z" id="a18Y8ysoRQ"></path><path d="M822.85 658.6C827.18 669.12 829.58 674.96 830.06 676.12C830.56 676.56 831.05 677.03 831.53 677.46C832.73 676.94 838.73 674.36 849.52 669.71L841.62 650.52L822.85 658.6Z" id="b1tDhTn9Ud"></path><path d="M822.85 658.6L814.95 639.41C812.41 640.5 811 641.11 810.72 641.23C812.29 643.5 814.46 645.51 815.94 647.87C818.18 651.46 818.77 655.79 819.63 659.99C820.06 659.81 821.13 659.34 822.85 658.6Z" id="afleh6xBo"></path><path d="M887.06 653.56C888.26 656.48 888.93 658.11 889.06 658.43C895.12 655.11 900.98 651.41 906.6 647.36C906.55 647.24 906.29 646.61 905.83 645.48L887.06 653.56Z" id="aje1OT2tU"></path><path d="M849.53 669.72C851.62 674.79 852.78 677.61 853.01 678.18C856.36 674.04 859.92 670.17 864.55 667.69C866.26 666.8 868.04 666.06 869.87 665.49C869.77 665.24 869.24 663.95 868.29 661.64L849.53 669.72Z" id="b36jbPZJK7"></path><path d="M1101.47 1172.63C1101.47 1172.63 1109.96 1189.55 1109.96 1189.55C1116.71 1189.68 1170.68 1190.72 1177.43 1190.85C1177.43 1190.85 1181.39 1160.89 1171.49 1160.89C1171.05 1160.92 1126.92 1164.39 1126.92 1164.39C1121.83 1166.03 1126.5 1176.1 1101.47 1172.63Z" id="fxp4iHop"></path><path d="M1101.47 1172.63C1101.47 1172.63 1109.96 1189.55 1109.96 1189.55C1116.71 1189.68 1170.68 1190.72 1177.43 1190.85C1177.43 1190.85 1181.39 1160.89 1171.49 1160.89C1171.05 1160.92 1126.92 1164.39 1126.92 1164.39C1121.83 1166.03 1126.5 1176.1 1101.47 1172.63Z" id="aKoFxBDh"></path><path d="M1076.34 981.17C1086.17 992.29 1124.77 988.92 1128.63 991.28C1129.21 991.64 1129.77 993.59 1130.3 996.73C1130.3 996.73 1130.3 996.73 1130.3 996.73C1132.12 1007.57 1133.51 1032.39 1134.38 1052.02C1135.05 1067.26 1135.42 1079.38 1135.42 1079.38C1135.56 1085.71 1136.28 1117.37 1137.58 1174.37L1162.56 1170.38L1178.27 1167.9C1173.69 1130.67 1171.14 1109.99 1170.63 1105.86C1170.63 1105.86 1170.21 1048.59 1171.52 1045.11C1175.37 1034.61 1173.23 1017.88 1170.63 1005.41C1168.47 995.08 1168.25 984.42 1170 974.01C1174.44 947.97 1167.98 927.81 1163.57 917.87C1162.54 915.52 1161.36 913.24 1160.02 911.06C1160.02 911.06 1097.65 910.15 1086.62 917.14C1084.56 918.6 1082.87 920.54 1081.69 922.8C1074.17 935.81 1071.13 964.33 1074.33 977.4C1074.68 978.81 1075.37 980.1 1076.34 981.17Z" id="nNAG6F3Zf"></path><path d="M1085.36 1189.99C1069.19 1187.74 1077.45 1195.43 1085.36 1201.2C1090.47 1204.92 1096.56 1206.97 1102.83 1207.08C1108.68 1207.19 1155.48 1208.09 1161.33 1208.21C1161.33 1208.21 1165.3 1178.25 1155.39 1178.25C1154.93 1178.28 1110.81 1181.74 1110.81 1181.74C1105.72 1183.39 1110.38 1193.45 1085.36 1189.99Z" id="atUEDbLfF"></path><path d="M1198.21 832.49C1198.21 832.49 1202.02 832.78 1207.97 832.95C1214.58 833.14 1223.84 833.18 1233.44 832.49C1251.68 831.19 1247.44 818.17 1247.44 818.17C1246.72 813.05 1240.95 772.1 1240.23 766.98C1240.23 766.98 1221.99 724.03 1216.9 736.61C1216.9 736.61 1226.23 769.15 1226.23 769.15C1226.23 769.15 1232.6 802.99 1226.23 807.76C1222.2 810.78 1215.58 808.88 1211.14 807.07C1209.68 806.47 1208.25 805.78 1206.86 805.01C1205.13 810.51 1199.94 826.99 1198.21 832.49Z" id="b1nQnjgGkK"></path><path d="M1010.69 754.83C1010.69 754.83 1016.21 765.68 1022.57 769.15C1026.93 771.53 1035.45 778.98 1040.41 783.45C1042.69 785.51 1044.21 786.93 1044.21 786.93C1045.49 784.85 1055.67 768.19 1056.94 766.11C1056.07 764.88 1055.08 763.74 1054.01 762.69C1049.55 758.26 1043.94 755.23 1037.85 753.96C1037.85 753.96 1036.79 750.71 1034.46 744.88C1032.82 740.79 1022.58 717.98 1022.58 717.98C1022.58 717.98 1018.34 699.76 1019.19 690.65C1020.04 681.53 1006.04 664.19 1003.92 666.36C1001.8 668.53 1000.09 694.09 1006.02 702.77C1006.96 713.18 1010.23 749.63 1010.69 754.83Z" id="b2i6waZO8U"></path><path d="M1140.93 788.24C1139.3 785.38 1138.34 781.23 1137.81 776.73C1136.4 764.86 1137.97 750.49 1137.97 750.49C1134.53 751.1 1107.04 755.96 1103.6 756.57C1105.58 763.31 1106.06 770.42 1105.01 777.37C1104.34 782.46 1103.01 787.42 1101.05 792.15C1101.05 792.15 1146.87 798.65 1140.93 788.24Z" id="e1PA5uF7Rv"></path><path d="M1116.96 722.95C1104.78 722.95 1094.9 733.05 1094.9 745.51C1094.9 757.97 1104.78 768.07 1116.96 768.07C1129.15 768.07 1139.02 757.97 1139.02 745.51C1139.02 733.05 1129.15 722.95 1116.96 722.95Z" id="bHBOiIciV"></path><path d="M1088.75 926.23C1095.54 927.53 1117.6 930.14 1126.09 923.19C1132.82 917.69 1154.75 917.64 1163.54 917.85C1162.52 915.5 1161.33 913.22 1159.99 911.04C1159.99 911.04 1097.63 910.14 1086.59 917.12C1084.55 918.58 1082.87 920.52 1081.7 922.78C1083.74 924.51 1086.16 925.7 1088.75 926.23Z" id="d2Mq3PpFg"></path><path d="M1044.21 786.93C1045.49 784.85 1055.67 768.19 1056.94 766.11C1056.07 764.88 1055.08 763.74 1054.01 762.69C1047.81 763.91 1042.43 777.6 1040.41 783.45C1042.69 785.51 1043.45 786.24 1044.21 786.93Z" id="b9BSUUxGj"></path><path d="M1198.21 832.49C1198.21 832.49 1202.02 832.78 1207.97 832.95C1217.35 821.45 1212.37 810.08 1211.18 807.07C1209.71 806.47 1208.28 805.78 1206.9 805.01C1205.16 810.51 1199.95 826.99 1198.21 832.49Z" id="b6hB4jXQgJ"></path><path d="M1140.93 788.24C1139.3 785.38 1138.34 781.23 1137.81 776.73C1134.07 775.17 1130.12 774.22 1126.09 773.92C1118.22 771.92 1109.81 775.03 1105.01 777.37C1104.34 782.46 1103.01 787.42 1101.05 792.15C1101.05 792.15 1146.87 798.65 1140.93 788.24Z" id="d1GkJTPHO9"></path><path d="M1147.72 787.82C1147.72 787.82 1165.54 793.9 1174.88 794.33C1184.22 794.77 1209.24 805.18 1209.67 806.92C1210.09 808.65 1218.54 823.84 1202.46 837.72C1202.46 837.72 1184.22 831.21 1176.16 842.92C1168.1 854.63 1159.18 910.6 1167.28 916.67C1167.28 916.67 1134.61 914.94 1126.12 921.87C1117.64 928.81 1095.58 926.21 1088.79 924.92C1082 923.62 1072.67 916.24 1072.24 895.87C1071.81 875.49 1079.03 831.65 1068.42 826.45C1057.81 821.25 1040.85 786.51 1040.85 786.51C1040.85 786.51 1047.64 763.95 1055.7 763.08C1055.7 763.08 1075.64 775.66 1084.11 776.52C1089.88 777.22 1095.57 778.53 1101.08 780.42C1101.08 780.42 1114.21 771.75 1126.09 774.81C1130.42 777.41 1144.33 775.71 1147.72 787.82Z" id="eOvbGFF4"></path><path d="M1140.51 1081.09C1140.51 1081.09 1136.9 1064.75 1134.38 1052.04C1135.05 1067.28 1135.42 1079.39 1135.42 1079.39C1135.56 1085.73 1136.28 1117.38 1137.58 1174.37L1162.56 1170.38C1150.8 1122.76 1143.45 1093 1140.51 1081.09Z" id="ccfBncg8N"></path><path d="M1076.87 969.99C1076.87 969.99 1068.39 1003.4 1076.87 1015.11C1076.87 1015.11 1095.12 1074.55 1095.12 1074.55C1095.12 1074.55 1101.48 1107.95 1106.15 1113.58C1106.15 1113.58 1108.7 1185.6 1108.7 1185.6C1112.38 1185.4 1130.76 1184.38 1163.85 1182.56C1148.83 1121.65 1140.49 1087.8 1138.82 1081.04C1138.82 1081.04 1130.76 1044.6 1130.33 1038.09C1130.33 1038.09 1127.78 975.17 1127.78 975.17C1117.6 974.14 1087.06 971.03 1076.87 969.99Z" id="b44MirWUG"></path><path d="M1084.96 716.7C1087.3 715.8 1089.76 718.01 1092.26 717.84C1095.28 717.63 1096.99 714.21 1099.57 712.65C1102.94 710.56 1107.36 711.74 1110.76 713.79C1114.16 715.84 1117.2 718.59 1120.96 719.81C1124.17 720.85 1127.62 720.64 1131 720.84C1135.28 721.09 1144.1 721.87 1147.31 725.21C1149.08 727.03 1148.28 728.84 1146.67 730.37C1147.1 732.92 1146.22 735.27 1146.51 738.28C1146.92 740.89 1146.58 743.57 1145.51 745.97C1144.3 749.36 1142.58 752.02 1140.92 755.21C1139.82 757.33 1140.45 760.12 1139.15 762.12C1138.45 763.06 1137.53 763.81 1136.48 764.29C1130.23 767.71 1122.94 768.61 1116.07 766.81C1113.76 766.19 1111.38 765.14 1110.15 763.05C1108.09 759.57 1110.15 755.14 1109.93 751.08C1109.69 745.35 1104.96 740.65 1103.6 735.22C1095.13 731.99 1088.37 725.27 1084.96 716.7Z" id="a4Ez4fWWYD"></path><path d="M1085.38 716.27C1087.72 715.36 1090.18 717.58 1092.67 717.4C1095.69 717.19 1097.41 713.77 1099.99 712.21C1103.35 710.12 1107.77 711.3 1111.17 713.35C1114.57 715.41 1117.62 718.16 1121.37 719.37C1124.59 720.42 1128.04 720.21 1131.41 720.41C1135.69 720.65 1144.52 721.43 1147.72 724.77C1149.5 726.59 1148.7 728.41 1147.08 729.93C1147.52 732.48 1146.64 734.83 1146.92 737.85C1147.34 740.45 1146.99 743.13 1145.93 745.54C1144.71 748.92 1143 751.58 1141.34 754.77C1140.24 756.89 1140.87 759.68 1139.56 761.69C1138.87 762.62 1137.95 763.37 1136.9 763.86C1130.64 767.28 1123.36 768.18 1116.48 766.37C1114.18 765.75 1111.8 764.7 1110.56 762.61C1108.51 759.14 1110.56 754.71 1110.35 750.65C1110.12 744.92 1105.39 740.22 1104.02 734.79C1095.55 731.55 1088.79 724.84 1085.38 716.27Z" id="eGXDv17W9"></path><path d="M1105.39 766.14C1105.3 765.24 1105.25 764.73 1105.24 764.63C1105.24 764.63 1105.09 765.46 1108.48 765.03C1108.06 765.18 1107.03 765.55 1105.39 766.14Z" id="g6jWuYmpj"></path></defs><g><g><g><use xlink:href="#a3LHyvuGo" opacity="1" fill="#f2a575" fill-opacity="1"></use><g><use xlink:href="#a3LHyvuGo" opacity="1" fill-opacity="0" stroke="#000000" stroke-width="1" stroke-opacity="0"></use></g></g><g><use xlink:href="#a4hT0638uH" opacity="1" fill="#fc6681" fill-opacity="1"></use><g><use xlink:href="#a4hT0638uH" opacity="1" fill-opacity="0" stroke="#000000" stroke-width="1" stroke-opacity="0"></use></g></g><g><use xlink:href="#a2PxDkopV" opacity="1" fill="#fc6681" fill-opacity="1"></use><g><use xlink:href="#a2PxDkopV" opacity="1" fill-opacity="0" stroke="#000000" stroke-width="1" stroke-opacity="0"></use></g></g><g><use xlink:href="#bd3Lh06Pt" opacity="1" fill="#a8a8a8" fill-opacity="1"></use><g><use xlink:href="#bd3Lh06Pt" opacity="1" fill-opacity="0" stroke="#000000" stroke-width="1" stroke-opacity="0"></use></g></g><g><use xlink:href="#c1xbLn2Vp" opacity="1" fill="#000000" fill-opacity="1"></use><g><use xlink:href="#c1xbLn2Vp" opacity="1" fill-opacity="0" stroke="#000000" stroke-width="1" stroke-opacity="0"></use></g></g><g><use xlink:href="#b4L7SdPYfD" opacity="1" fill="#3f3d56" fill-opacity="1"></use><g><use xlink:href="#b4L7SdPYfD" opacity="1" fill-opacity="0" stroke="#000000" stroke-width="1" stroke-opacity="0"></use></g></g><g><use xlink:href="#a5wogRfjF" opacity="1" fill="#fabdbd" fill-opacity="1"></use><g><use xlink:href="#a5wogRfjF" opacity="1" fill-opacity="0" stroke="#000000" stroke-width="1" stroke-opacity="0"></use></g></g><g><use xlink:href="#e1gTNhZHlM" opacity="1" fill="#000000" fill-opacity="1"></use><g><use xlink:href="#e1gTNhZHlM" opacity="1" fill-opacity="0" stroke="#000000" stroke-width="1" stroke-opacity="0"></use></g></g><g><use xlink:href="#b1qtx7SwIq" opacity="1" fill="#000000" fill-opacity="1"></use><g><use xlink:href="#b1qtx7SwIq" opacity="1" fill-opacity="0" stroke="#000000" stroke-width="1" stroke-opacity="0"></use></g></g><g><use xlink:href="#aaYDyfXQ" opacity="1" fill="#fabdbd" fill-opacity="1"></use><g><use xlink:href="#aaYDyfXQ" opacity="1" fill-opacity="0" stroke="#000000" stroke-width="1" stroke-opacity="0"></use></g></g><g><use xlink:href="#a8cyCMF8c8" opacity="1" fill="#000000" fill-opacity="1"></use><g><use xlink:href="#a8cyCMF8c8" opacity="1" fill-opacity="0" stroke="#000000" stroke-width="1" stroke-opacity="0"></use></g></g><g><use xlink:href="#a15RLfFJ8O" opacity="1" fill="#3f3d56" fill-opacity="1"></use><g><use xlink:href="#a15RLfFJ8O" opacity="1" fill-opacity="0" stroke="#000000" stroke-width="1" stroke-opacity="0"></use></g></g><g><use xlink:href="#fjnCiAVfE" opacity="1" fill="#3f3d56" fill-opacity="1"></use><g><use xlink:href="#fjnCiAVfE" opacity="1" fill-opacity="0" stroke="#000000" stroke-width="1" stroke-opacity="0"></use></g></g><g><use xlink:href="#n3IVu74SyS" opacity="1" fill="#000000" fill-opacity="1"></use><g><use xlink:href="#n3IVu74SyS" opacity="1" fill-opacity="0" stroke="#000000" stroke-width="1" stroke-opacity="0"></use></g></g><g><use xlink:href="#a1id2E72JB" opacity="1" fill="#000000" fill-opacity="1"></use><g><use xlink:href="#a1id2E72JB" opacity="1" fill-opacity="0" stroke="#000000" stroke-width="1" stroke-opacity="0"></use></g></g><g><use xlink:href="#aqiWWpQ29" opacity="1" fill="#000000" fill-opacity="1"></use><g><use xlink:href="#aqiWWpQ29" opacity="1" fill-opacity="0" stroke="#000000" stroke-width="1" stroke-opacity="0"></use></g></g><g><use xlink:href="#b17lsl1ubT" opacity="1" fill="#000000" fill-opacity="1"></use><g><use xlink:href="#b17lsl1ubT" opacity="1" fill-opacity="0" stroke="#000000" stroke-width="1" stroke-opacity="0"></use></g></g><g><use xlink:href="#btNzBRJuD" opacity="1" fill="#fabdbd" fill-opacity="1"></use><g><use xlink:href="#btNzBRJuD" opacity="1" fill-opacity="0" stroke="#000000" stroke-width="1" stroke-opacity="0"></use></g></g><g><use xlink:href="#c3aOY4Rizt" opacity="1" fill="#000000" fill-opacity="1"></use><g><use xlink:href="#c3aOY4Rizt" opacity="1" fill-opacity="0" stroke="#000000" stroke-width="1" stroke-opacity="0"></use></g></g><g><use xlink:href="#ajINapyAy" opacity="1" fill="#000000" fill-opacity="1"></use><g><use xlink:href="#ajINapyAy" opacity="1" fill-opacity="0" stroke="#000000" stroke-width="1" stroke-opacity="0"></use></g></g><g><use xlink:href="#c4nlCPKa6" opacity="1" fill="#000000" fill-opacity="1"></use><g><use xlink:href="#c4nlCPKa6" opacity="1" fill-opacity="0" stroke="#000000" stroke-width="1" stroke-opacity="0"></use></g></g><g><use xlink:href="#gkVL8qzpF" opacity="1" fill="#000000" fill-opacity="1"></use><g><use xlink:href="#gkVL8qzpF" opacity="1" fill-opacity="0" stroke="#000000" stroke-width="1" stroke-opacity="0"></use></g></g><g><use xlink:href="#c7AFqUTbx" opacity="1" fill="#000000" fill-opacity="1"></use><g><use xlink:href="#c7AFqUTbx" opacity="1" fill-opacity="0" stroke="#000000" stroke-width="1" stroke-opacity="0"></use></g></g><g><use xlink:href="#b1tZoiPSgO" opacity="1" fill="#000000" fill-opacity="1"></use><g><use xlink:href="#b1tZoiPSgO" opacity="1" fill-opacity="0" stroke="#000000" stroke-width="1" stroke-opacity="0"></use></g></g><g><use xlink:href="#b4MgXJRIu1" opacity="1" fill="#fff263" fill-opacity="1"></use><g><use xlink:href="#b4MgXJRIu1" opacity="1" fill-opacity="0" stroke="#000000" stroke-width="1" stroke-opacity="0"></use></g></g><g><use xlink:href="#bgb3OLaDV" opacity="1" fill="#000000" fill-opacity="1"></use><g><use xlink:href="#bgb3OLaDV" opacity="1" fill-opacity="0" stroke="#000000" stroke-width="1" stroke-opacity="0"></use></g></g><g><use xlink:href="#auVzYGoh8" opacity="1" fill="#fabdbd" fill-opacity="1"></use><g><use xlink:href="#auVzYGoh8" opacity="1" fill-opacity="0" stroke="#000000" stroke-width="1" stroke-opacity="0"></use></g></g><g><use xlink:href="#a3s2sZEDzD" opacity="1" fill="#f86d70" fill-opacity="1"></use><g><use xlink:href="#a3s2sZEDzD" opacity="1" fill-opacity="0" stroke="#000000" stroke-width="1" stroke-opacity="0"></use></g></g><g><use xlink:href="#a2gEJ2gaGI" opacity="1" fill="#000000" fill-opacity="1"></use><g><use xlink:href="#a2gEJ2gaGI" opacity="1" fill-opacity="0" stroke="#000000" stroke-width="1" stroke-opacity="0"></use></g></g><g><use xlink:href="#b4yIIbzkqZ" opacity="1" fill="#a0bcff" fill-opacity="1"></use><g><use xlink:href="#b4yIIbzkqZ" opacity="1" fill-opacity="0" stroke="#000000" stroke-width="1" stroke-opacity="0"></use></g></g><g><use xlink:href="#b7qFczEUKN" opacity="1" fill="#f86d70" fill-opacity="1"></use><g><use xlink:href="#b7qFczEUKN" opacity="1" fill-opacity="0" stroke="#000000" stroke-width="1" stroke-opacity="0"></use></g></g><g><use xlink:href="#cLkiZc0u5" opacity="1" fill="#000000" fill-opacity="1"></use><g><use xlink:href="#cLkiZc0u5" opacity="1" fill-opacity="0" stroke="#000000" stroke-width="1" stroke-opacity="0"></use></g></g><g><use xlink:href="#a1xF4KiUMs" opacity="1" fill="#a0bcff" fill-opacity="1"></use><g><use xlink:href="#a1xF4KiUMs" opacity="1" fill-opacity="0" stroke="#000000" stroke-width="1" stroke-opacity="0"></use></g></g><g><use xlink:href="#c3BWT1d7k8" opacity="1" fill="#3f3d56" fill-opacity="1"></use><g><use xlink:href="#c3BWT1d7k8" opacity="1" fill-opacity="0" stroke="#000000" stroke-width="1" stroke-opacity="0"></use></g></g><g><use xlink:href="#jeJzZW5hI" opacity="1" fill="#000000" fill-opacity="1"></use><g><use xlink:href="#jeJzZW5hI" opacity="1" fill-opacity="0" stroke="#000000" stroke-width="1" stroke-opacity="0"></use></g></g><g><use xlink:href="#e7kpuvaBkf" opacity="1" fill="#000000" fill-opacity="1"></use><g><use xlink:href="#e7kpuvaBkf" opacity="1" fill-opacity="0" stroke="#000000" stroke-width="1" stroke-opacity="0"></use></g></g><g><use xlink:href="#f4Zba5l6ye" opacity="1" fill="#6e9c22" fill-opacity="1"></use><g><use xlink:href="#f4Zba5l6ye" opacity="1" fill-opacity="0" stroke="#000000" stroke-width="1" stroke-opacity="0"></use></g></g><g><use xlink:href="#c1wnUiltIU" opacity="1" fill="#6e9c22" fill-opacity="1"></use><g><use xlink:href="#c1wnUiltIU" opacity="1" fill-opacity="0" stroke="#000000" stroke-width="1" stroke-opacity="0"></use></g></g><g><use xlink:href="#cBShuYQAA" opacity="1" fill="#cab50f" fill-opacity="1"></use><g><use xlink:href="#cBShuYQAA" opacity="1" fill-opacity="0" stroke="#000000" stroke-width="1" stroke-opacity="0"></use></g></g><g><use xlink:href="#a4FGwae6a" opacity="1" fill="#fc6681" fill-opacity="1"></use><g><use xlink:href="#a4FGwae6a" opacity="1" fill-opacity="0" stroke="#000000" stroke-width="1" stroke-opacity="0"></use></g></g><g><use xlink:href="#i3XYbbZr74" opacity="1" fill="#000000" fill-opacity="1"></use><g><use xlink:href="#i3XYbbZr74" opacity="1" fill-opacity="0" stroke="#000000" stroke-width="1" stroke-opacity="0"></use></g></g><g><use xlink:href="#b42QqoU1Wr" opacity="1" fill="#ffd037" fill-opacity="1"></use><g><use xlink:href="#b42QqoU1Wr" opacity="1" fill-opacity="0" stroke="#000000" stroke-width="1" stroke-opacity="0"></use></g></g><g><use xlink:href="#b16rZjuKYs" opacity="1" fill="#ffd037" fill-opacity="1"></use><g><use xlink:href="#b16rZjuKYs" opacity="1" fill-opacity="0" stroke="#000000" stroke-width="1" stroke-opacity="0"></use></g></g><g><use xlink:href="#ltElslWCo" opacity="1" fill="#fc6681" fill-opacity="1"></use><g><use xlink:href="#ltElslWCo" opacity="1" fill-opacity="0" stroke="#000000" stroke-width="1" stroke-opacity="0"></use></g></g><g><use xlink:href="#a6TXcMSMpy" opacity="1" fill="#000000" fill-opacity="1"></use><g><use xlink:href="#a6TXcMSMpy" opacity="1" fill-opacity="0" stroke="#000000" stroke-width="1" stroke-opacity="0"></use></g></g><g><use xlink:href="#p4vG17yGhf" opacity="1" fill="#ffd037" fill-opacity="1"></use><g><use xlink:href="#p4vG17yGhf" opacity="1" fill-opacity="0" stroke="#000000" stroke-width="1" stroke-opacity="0"></use></g></g><g><use xlink:href="#a1LIFflSL3" opacity="1" fill="#ffd037" fill-opacity="1"></use><g><use xlink:href="#a1LIFflSL3" opacity="1" fill-opacity="0" stroke="#000000" stroke-width="1" stroke-opacity="0"></use></g></g><g><use xlink:href="#aXRg37xF9" opacity="1" fill="#a8a8a8" fill-opacity="1"></use><g><use xlink:href="#aXRg37xF9" opacity="1" fill-opacity="0" stroke="#000000" stroke-width="1" stroke-opacity="0"></use></g></g><g><use xlink:href="#a3CEkQLahe" opacity="1" fill="#000000" fill-opacity="1"></use><g><use xlink:href="#a3CEkQLahe" opacity="1" fill-opacity="0" stroke="#000000" stroke-width="1" stroke-opacity="0"></use></g></g><g><use xlink:href="#a4Mow4HQwr" opacity="1" fill="url(#gradientc1XSO4iaY7)"></use><g><use xlink:href="#a4Mow4HQwr" opacity="1" fill-opacity="0" stroke="#000000" stroke-width="1" stroke-opacity="0"></use></g></g><g><use xlink:href="#i6TIGuFaPM" opacity="1" fill="#d6d8e1" fill-opacity="1"></use><g><use xlink:href="#i6TIGuFaPM" opacity="1" fill-opacity="0" stroke="#000000" stroke-width="1" stroke-opacity="0"></use></g></g><g><use xlink:href="#dexML0pCF" opacity="1" fill="#e6e8ed" fill-opacity="1"></use><g><use xlink:href="#dexML0pCF" opacity="1" fill-opacity="0" stroke="#000000" stroke-width="1" stroke-opacity="0"></use></g></g><g><use xlink:href="#h54gtWoQ2t" opacity="1" fill="#5a5773" fill-opacity="1"></use><g><use xlink:href="#h54gtWoQ2t" opacity="1" fill-opacity="0" stroke="#000000" stroke-width="1" stroke-opacity="0"></use></g></g><g><use xlink:href="#aa5LBYsJV" opacity="1" fill="#5a5773" fill-opacity="1"></use><g><use xlink:href="#aa5LBYsJV" opacity="1" fill-opacity="0" stroke="#000000" stroke-width="1" stroke-opacity="0"></use></g></g><g><use xlink:href="#b3TqAtaBZD" opacity="1" fill="#5a5773" fill-opacity="1"></use><g><use xlink:href="#b3TqAtaBZD" opacity="1" fill-opacity="0" stroke="#000000" stroke-width="1" stroke-opacity="0"></use></g></g><g><use xlink:href="#ea9CtFMY" opacity="1" fill="#5a5773" fill-opacity="1"></use><g><use xlink:href="#ea9CtFMY" opacity="1" fill-opacity="0" stroke="#000000" stroke-width="1" stroke-opacity="0"></use></g></g><g><use xlink:href="#bfZ4vHdHJ" opacity="1" fill="#5a5773" fill-opacity="1"></use><g><use xlink:href="#bfZ4vHdHJ" opacity="1" fill-opacity="0" stroke="#000000" stroke-width="1" stroke-opacity="0"></use></g></g><g><use xlink:href="#a20EDvDHJm" opacity="1" fill="#5a5773" fill-opacity="1"></use><g><use xlink:href="#a20EDvDHJm" opacity="1" fill-opacity="0" stroke="#000000" stroke-width="1" stroke-opacity="0"></use></g></g><g><use xlink:href="#a2BGEhiS6t" opacity="1" fill="#5a5773" fill-opacity="1"></use><g><use xlink:href="#a2BGEhiS6t" opacity="1" fill-opacity="0" stroke="#000000" stroke-width="1" stroke-opacity="0"></use></g></g><g><use xlink:href="#d3iaTq5ECo" opacity="1" fill="#5a5773" fill-opacity="1"></use><g><use xlink:href="#d3iaTq5ECo" opacity="1" fill-opacity="0" stroke="#000000" stroke-width="1" stroke-opacity="0"></use></g></g><g><use xlink:href="#a1o61Ut0Yx" opacity="1" fill="#5a5773" fill-opacity="1"></use><g><use xlink:href="#a1o61Ut0Yx" opacity="1" fill-opacity="0" stroke="#000000" stroke-width="1" stroke-opacity="0"></use></g></g><g><use xlink:href="#fV3tO1RGi" opacity="1" fill="#5a5773" fill-opacity="1"></use><g><use xlink:href="#fV3tO1RGi" opacity="1" fill-opacity="0" stroke="#000000" stroke-width="1" stroke-opacity="0"></use></g></g><g><use xlink:href="#ho2xoY2PM" opacity="1" fill="#5a5773" fill-opacity="1"></use><g><use xlink:href="#ho2xoY2PM" opacity="1" fill-opacity="0" stroke="#000000" stroke-width="1" stroke-opacity="0"></use></g></g><g><use xlink:href="#a1M2QXThy" opacity="1" fill="#5a5773" fill-opacity="1"></use><g><use xlink:href="#a1M2QXThy" opacity="1" fill-opacity="0" stroke="#000000" stroke-width="1" stroke-opacity="0"></use></g></g><g><use xlink:href="#fDqTuyGrS" opacity="1" fill="#5a5773" fill-opacity="1"></use><g><use xlink:href="#fDqTuyGrS" opacity="1" fill-opacity="0" stroke="#000000" stroke-width="1" stroke-opacity="0"></use></g></g><g><use xlink:href="#b1mDG2QODT" opacity="1" fill="#5a5773" fill-opacity="1"></use><g><use xlink:href="#b1mDG2QODT" opacity="1" fill-opacity="0" stroke="#000000" stroke-width="1" stroke-opacity="0"></use></g></g><g><use xlink:href="#a18Y8ysoRQ" opacity="1" fill="#5a5773" fill-opacity="1"></use><g><use xlink:href="#a18Y8ysoRQ" opacity="1" fill-opacity="0" stroke="#000000" stroke-width="1" stroke-opacity="0"></use></g></g><g><use xlink:href="#b1tDhTn9Ud" opacity="1" fill="#5a5773" fill-opacity="1"></use><g><use xlink:href="#b1tDhTn9Ud" opacity="1" fill-opacity="0" stroke="#000000" stroke-width="1" stroke-opacity="0"></use></g></g><g><use xlink:href="#afleh6xBo" opacity="1" fill="#5a5773" fill-opacity="1"></use><g><use xlink:href="#afleh6xBo" opacity="1" fill-opacity="0" stroke="#000000" stroke-width="1" stroke-opacity="0"></use></g></g><g><use xlink:href="#aje1OT2tU" opacity="1" fill="#5a5773" fill-opacity="1"></use><g><use xlink:href="#aje1OT2tU" opacity="1" fill-opacity="0" stroke="#000000" stroke-width="1" stroke-opacity="0"></use></g></g><g><use xlink:href="#b36jbPZJK7" opacity="1" fill="#5a5773" fill-opacity="1"></use><g><use xlink:href="#b36jbPZJK7" opacity="1" fill-opacity="0" stroke="#000000" stroke-width="1" stroke-opacity="0"></use></g></g><g><use xlink:href="#fxp4iHop" opacity="1" fill="#4a4347" fill-opacity="1"></use><g><use xlink:href="#fxp4iHop" opacity="1" fill-opacity="0" stroke="#000000" stroke-width="1" stroke-opacity="0"></use></g></g><g><use xlink:href="#aKoFxBDh" opacity="1" fill="#000000" fill-opacity="1"></use><g><use xlink:href="#aKoFxBDh" opacity="1" fill-opacity="0" stroke="#000000" stroke-width="1" stroke-opacity="0"></use></g></g><g><use xlink:href="#nNAG6F3Zf" opacity="1" fill="#5a5773" fill-opacity="1"></use><g><use xlink:href="#nNAG6F3Zf" opacity="1" fill-opacity="0" stroke="#000000" stroke-width="1" stroke-opacity="0"></use></g></g><g><use xlink:href="#atUEDbLfF" opacity="1" fill="#4a4347" fill-opacity="1"></use><g><use xlink:href="#atUEDbLfF" opacity="1" fill-opacity="0" stroke="#000000" stroke-width="1" stroke-opacity="0"></use></g></g><g><use xlink:href="#b1nQnjgGkK" opacity="1" fill="#a1616a" fill-opacity="1"></use><g><use xlink:href="#b1nQnjgGkK" opacity="1" fill-opacity="0" stroke="#000000" stroke-width="1" stroke-opacity="0"></use></g></g><g><use xlink:href="#b2i6waZO8U" opacity="1" fill="#a1616a" fill-opacity="1"></use><g><use xlink:href="#b2i6waZO8U" opacity="1" fill-opacity="0" stroke="#000000" stroke-width="1" stroke-opacity="0"></use></g></g><g><use xlink:href="#e1PA5uF7Rv" opacity="1" fill="#a1616a" fill-opacity="1"></use><g><use xlink:href="#e1PA5uF7Rv" opacity="1" fill-opacity="0" stroke="#000000" stroke-width="1" stroke-opacity="0"></use></g></g><g><use xlink:href="#bHBOiIciV" opacity="1" fill="#a1616a" fill-opacity="1"></use><g><use xlink:href="#bHBOiIciV" opacity="1" fill-opacity="0" stroke="#000000" stroke-width="1" stroke-opacity="0"></use></g></g><g><use xlink:href="#d2Mq3PpFg" opacity="1" fill="#000000" fill-opacity="1"></use><g><use xlink:href="#d2Mq3PpFg" opacity="1" fill-opacity="0" stroke="#000000" stroke-width="1" stroke-opacity="0"></use></g></g><g><use xlink:href="#b9BSUUxGj" opacity="1" fill="#000000" fill-opacity="1"></use><g><use xlink:href="#b9BSUUxGj" opacity="1" fill-opacity="0" stroke="#000000" stroke-width="1" stroke-opacity="0"></use></g></g><g><use xlink:href="#b6hB4jXQgJ" opacity="1" fill="#000000" fill-opacity="1"></use><g><use xlink:href="#b6hB4jXQgJ" opacity="1" fill-opacity="0" stroke="#000000" stroke-width="1" stroke-opacity="0"></use></g></g><g><use xlink:href="#d1GkJTPHO9" opacity="1" fill="#000000" fill-opacity="1"></use><g><use xlink:href="#d1GkJTPHO9" opacity="1" fill-opacity="0" stroke="#000000" stroke-width="1" stroke-opacity="0"></use></g></g><g><use xlink:href="#eOvbGFF4" opacity="1" fill="#605d82" fill-opacity="1"></use><g><use xlink:href="#eOvbGFF4" opacity="1" fill-opacity="0" stroke="#000000" stroke-width="1" stroke-opacity="0"></use></g></g><g><use xlink:href="#ccfBncg8N" opacity="1" fill="#000000" fill-opacity="1"></use><g><use xlink:href="#ccfBncg8N" opacity="1" fill-opacity="0" stroke="#000000" stroke-width="1" stroke-opacity="0"></use></g></g><g><use xlink:href="#b44MirWUG" opacity="1" fill="#5a5773" fill-opacity="1"></use><g><use xlink:href="#b44MirWUG" opacity="1" fill-opacity="0" stroke="#000000" stroke-width="1" stroke-opacity="0"></use></g></g><g><use xlink:href="#a4Ez4fWWYD" opacity="1" fill="#000000" fill-opacity="1"></use><g><use xlink:href="#a4Ez4fWWYD" opacity="1" fill-opacity="0" stroke="#000000" stroke-width="1" stroke-opacity="0"></use></g></g><g><use xlink:href="#eGXDv17W9" opacity="1" fill="#4a4347" fill-opacity="1"></use><g><use xlink:href="#eGXDv17W9" opacity="1" fill-opacity="0" stroke="#000000" stroke-width="1" stroke-opacity="0"></use></g></g><g><use xlink:href="#g6jWuYmpj" opacity="1" fill="#000000" fill-opacity="1"></use><g><use xlink:href="#g6jWuYmpj" opacity="1" fill-opacity="0" stroke="#000000" stroke-width="1" stroke-opacity="0"></use></g></g></g></g></svg>