<?xml version="1.0" encoding="UTF-8" standalone="no"?>
<!DOCTYPE svg PUBLIC "-//W3C//DTD SVG 1.1//EN" "http://www.w3.org/Graphics/SVG/1.1/DTD/svg11.dtd">
<svg version="1.1" xmlns="http://www.w3.org/2000/svg" xmlns:xlink="http://www.w3.org/1999/xlink" preserveAspectRatio="xMidYMid meet" viewBox="0 0 1500 1500" width="1500" height="1500"><defs><path d="M1023.57 342.71C1023.57 342.71 1023.57 342.71 1023.57 342.71C1023.57 697.14 1023.57 894.05 1023.57 933.43C1023.57 933.43 1023.57 933.43 1023.57 933.43C427 933.43 95.58 933.43 29.29 933.43C29.29 933.43 29.29 933.43 29.29 933.43C29.29 579 29.29 382.09 29.29 342.71C29.29 342.71 29.29 342.71 29.29 342.71C625.86 342.71 957.28 342.71 1023.57 342.71Z" id="a4rhfpKlB9"></path><path d="M995.14 416.8C995.14 416.8 995.14 416.8 995.14 416.8C995.14 705.81 995.14 866.37 995.14 898.48C995.14 898.48 995.14 898.48 995.14 898.48C432.69 898.48 120.22 898.48 57.72 898.48C57.72 898.48 57.72 898.48 57.72 898.48C57.72 609.47 57.72 448.91 57.72 416.8C57.72 416.8 57.72 416.8 57.72 416.8C620.17 416.8 932.64 416.8 995.14 416.8Z" id="a203H7xhqp"></path><path d="M1023.14 342.19C1023.14 342.19 1023.14 342.19 1023.14 342.19C1023.14 365.7 1023.14 378.76 1023.14 381.37C1023.14 381.37 1023.14 381.37 1023.14 381.37C426.58 381.37 95.15 381.37 28.87 381.37C28.87 381.37 28.87 381.37 28.87 381.37C28.87 357.86 28.87 344.8 28.87 342.19C28.87 342.19 28.87 342.19 28.87 342.19C625.43 342.19 956.86 342.19 1023.14 342.19Z" id="dbsi8zDFy"></path><path d="M60.26 354.96C55.93 354.96 52.43 358.21 52.43 362.22C52.43 366.23 55.93 369.48 60.26 369.48C64.58 369.48 68.09 366.23 68.09 362.22C68.09 358.21 64.58 354.96 60.26 354.96Z" id="b7phmbT1J"></path><path d="M89.97 354.96C85.65 354.96 82.15 358.21 82.15 362.22C82.15 366.23 85.65 369.48 89.97 369.48C94.3 369.48 97.8 366.23 97.8 362.22C97.8 358.21 94.3 354.96 89.97 354.96Z" id="b1wqpzxnI"></path><path d="M119.69 354.96C115.37 354.96 111.86 358.21 111.86 362.22C111.86 366.23 115.37 369.48 119.69 369.48C124.02 369.48 127.52 366.23 127.52 362.22C127.52 358.21 124.02 354.96 119.69 354.96Z" id="i1BUNrEg9j"></path><path d="M791.26 434.86C791.26 434.86 791.26 434.86 791.26 434.86C791.26 560.3 791.26 629.99 791.26 643.93C791.26 643.93 791.26 643.93 791.26 643.93C472.95 643.93 296.12 643.93 260.75 643.93C260.75 643.93 260.75 643.93 260.75 643.93C260.75 518.49 260.75 448.8 260.75 434.86C260.75 434.86 260.75 434.86 260.75 434.86C579.06 434.86 755.89 434.86 791.26 434.86Z" id="a348Kf0EDM"></path><path d="M419.6 811.69C419.6 811.69 419.6 811.69 419.6 811.69C419.6 844.94 419.6 863.42 419.6 867.11C419.6 867.11 419.6 867.11 419.6 867.11C258.58 867.11 169.13 867.11 151.23 867.11C151.23 867.11 151.23 867.11 151.23 867.11C151.23 833.86 151.23 815.39 151.23 811.69C151.23 811.69 151.23 811.69 151.23 811.69C312.25 811.69 401.71 811.69 419.6 811.69Z" id="b3grL7tGre"></path><path d="M888.75 804.3C888.75 804.3 888.75 804.3 888.75 804.3C888.75 840.83 888.75 861.12 888.75 865.18C888.75 865.18 888.75 865.18 888.75 865.18C727.73 865.18 638.27 865.18 620.38 865.18C620.38 865.18 620.38 865.18 620.38 865.18C620.38 828.65 620.38 808.36 620.38 804.3C620.38 804.3 620.38 804.3 620.38 804.3C781.4 804.3 870.86 804.3 888.75 804.3Z" id="a84N37gx3k"></path><path d="M884.94 725.29C884.94 725.29 884.94 725.29 884.94 725.29C884.94 758.54 884.94 777.01 884.94 780.71C884.94 780.71 884.94 780.71 884.94 780.71C723.91 780.71 634.46 780.71 616.57 780.71C616.57 780.71 616.57 780.71 616.57 780.71C616.57 747.46 616.57 728.98 616.57 725.29C616.57 725.29 616.57 725.29 616.57 725.29C777.59 725.29 867.04 725.29 884.94 725.29Z" id="bBhkp5mYx"></path><path d="M713.49 665.29C713.49 665.29 713.49 665.29 713.49 665.29C713.49 679.02 713.49 686.65 713.49 688.18C713.49 688.18 713.49 688.18 713.49 688.18C494.2 688.18 372.37 688.18 348 688.18C348 688.18 348 688.18 348 688.18C348 674.45 348 666.82 348 665.29C348 665.29 348 665.29 348 665.29C567.3 665.29 689.13 665.29 713.49 665.29Z" id="gw4n9W3af"></path><path d="M476.01 477.45L476.01 601.34L591.67 539.4L476.01 477.45L476.01 601.34L591.67 539.4L591.67 539.4L476.01 477.45Z" id="dUtrdjyUa"></path><path d="M1221.41 1179.48L1197.65 1183.89L1201.22 1156.34L1216.66 1157.44L1216.66 1157.44L1221.41 1179.48Z" id="af90MYINV"></path><path d="M1308.53 1178.39L1286.4 1178.88L1293.46 1148.44L1313.91 1153.43L1313.91 1153.43L1308.53 1178.39Z" id="dH7Gl3GHt"></path><path d="M1349.19 897.05C1352.89 920.23 1354.94 933.1 1355.35 935.68C1355.35 935.68 1349.19 1021.51 1347.64 1025.81C1347.64 1025.81 1341.48 1051.56 1341.48 1051.56C1338.85 1061.86 1317.88 1144.26 1315.26 1154.56C1315.26 1154.56 1292.56 1157.42 1287.94 1145.98C1288.01 1141.88 1288.38 1121.37 1289.04 1084.46L1287.5 1014.36L1268.99 934.25C1249.56 999.48 1238.77 1035.72 1236.61 1042.97C1236.61 1042.97 1235.07 1078.74 1230.44 1091.61C1230.44 1091.61 1219.64 1160.28 1219.64 1160.28C1219.64 1160.28 1200.03 1164.58 1198.49 1160.28C1198.49 1160.28 1188.8 1054.42 1188.8 1038.68C1188.8 1038.68 1179.73 872.05 1179.73 872.05C1202.33 875.39 1258.81 883.72 1349.19 897.05Z" id="arxTQZa0f"></path><path d="M1301.21 1176.96C1304.1 1176.07 1301.21 1170.71 1301.21 1170.71C1302.27 1170.71 1310.74 1170.71 1311.8 1170.71C1311.8 1170.71 1323.36 1194.83 1328.18 1196.62C1328.18 1196.62 1348.4 1218.06 1330.1 1218.06C1318.81 1217.93 1307.79 1214.83 1298.32 1209.13C1298.32 1209.13 1296.39 1201.09 1287.72 1200.19C1287.72 1200.19 1273.28 1189.47 1273.28 1189.47C1274.22 1187.86 1281.74 1174.97 1282.68 1173.36C1283.51 1171.96 1285.4 1171.44 1286.91 1172.21C1287.43 1172.47 1287.86 1172.87 1288.15 1173.35C1289.46 1175.49 1291.27 1177.38 1293.5 1176.96C1296.04 1177.45 1298.67 1177.45 1301.21 1176.96Z" id="cbYUjKYGx"></path><path d="M1208.6 1176.19C1206.8 1174.07 1205.35 1171.72 1204.3 1169.21C1204.3 1169.21 1197.85 1166.22 1196.78 1169.21C1196.78 1169.21 1191.41 1188.14 1189.26 1190.14C1189.26 1190.14 1164.56 1213.06 1187.11 1217.04C1187.11 1217.04 1213.97 1212.06 1213.97 1212.06C1213.97 1212.06 1210.74 1207.08 1217.19 1205.08C1217.19 1205.08 1224.71 1196.12 1224.71 1196.12C1224.38 1193.86 1221.79 1175.85 1221.47 1173.6C1221.27 1172.26 1219.95 1171.33 1218.51 1171.51C1217.81 1171.6 1217.18 1171.94 1216.76 1172.47C1215.51 1173.97 1214.12 1174.96 1212.89 1174.19C1212.03 1174.59 1210.74 1178.18 1208.6 1176.19Z" id="eIepvWdq5"></path><path d="M1384.66 796.91C1387.43 841.54 1388.97 866.34 1389.28 871.3C1389.28 871.3 1410.87 918.51 1381.57 917.08C1381.57 917.08 1370.78 869.87 1370.78 869.87C1368.86 865.44 1359.3 843.31 1342.09 803.47L1384.66 796.91Z" id="c448AkkD"></path><path d="M1147.16 775.45C1144.39 820.08 1142.84 844.88 1142.54 849.84C1142.54 849.84 1120.95 897.05 1150.25 895.62C1150.25 895.62 1161.04 848.41 1161.04 848.41C1162.95 843.98 1172.52 821.85 1189.73 782.01L1147.16 775.45Z" id="a1L2YaoAvf"></path><path d="M1270.54 539.39C1248.39 539.39 1230.44 556.05 1230.44 576.59C1230.44 597.13 1248.39 613.79 1270.54 613.79C1292.68 613.79 1310.63 597.13 1310.63 576.59C1310.63 556.05 1292.68 539.39 1270.54 539.39Z" id="d6sUy23SSO"></path><path d="M1302.15 591.61C1302.15 591.61 1291.35 631.67 1312.95 641.68C1312.95 641.68 1245.09 666 1238.92 641.68C1239.23 640.54 1241.7 631.38 1242.01 630.24C1242.01 630.24 1254.34 615.93 1251.26 603.06C1261.44 600.77 1291.97 593.9 1302.15 591.61Z" id="k7gP4X4Tx1"></path><path d="M1243.35 628.53C1243.35 628.53 1181.09 632.38 1167.21 685.32C1183.32 685.75 1203.3 855.78 1176.9 872.73C1155.47 886.49 1213.88 907.67 1295.21 908.49C1301.38 908.21 1350.73 905.92 1356.9 905.63C1345.39 896.44 1317.87 776.81 1335.31 778.31C1335.31 778.31 1381.57 711.07 1376.95 701.05C1372.32 691.04 1364.91 651.55 1305.39 635.53C1305.39 635.53 1304.46 643.83 1278.25 642.4C1271.27 639.63 1251.64 644.7 1243.35 628.53Z" id="du2PYVVmB"></path><path d="M1356.9 676.73C1368.93 691.33 1375.61 699.43 1376.95 701.05C1376.95 701.05 1396.99 802.63 1390.82 804.06C1390.82 804.06 1347.64 816.93 1341.48 812.64C1335.31 808.35 1307.55 723.94 1307.55 723.94C1314.13 717.65 1330.58 701.91 1356.9 676.73Z" id="e2rwftLfoI"></path><path d="M1193.43 669.58C1177.7 679.02 1168.96 684.27 1167.21 685.32C1167.21 685.32 1128.66 785.46 1139.45 789.75C1150.25 794.04 1210.39 791.18 1210.39 791.18C1208.13 774.97 1202.47 734.44 1193.43 669.58Z" id="c61puGAvWJ"></path><path d="M1273.86 521.83C1273.86 521.83 1232.19 537.93 1231.03 547.6C1231.03 547.6 1231.61 571.75 1231.61 571.75C1231.61 571.75 1234.51 551.89 1253.02 556.19C1253.02 556.19 1300.48 557.26 1300.48 557.26C1300.94 561.13 1304.64 592.05 1305.1 595.91C1305.1 595.91 1310.31 588.93 1316.1 593.23C1321.89 597.52 1332.88 551.89 1314.36 543.3C1306.26 539.01 1300.48 515.39 1273.86 521.83Z" id="a18lVo0WBz"></path><path d="M1073.07 1217.27L1073.07 1214.26L1471.13 1214.26L1470.54 1217.27L1470.54 1217.27L1073.07 1217.27Z" id="b1sWA5g9yV"></path><path d="M419.6 725.29C419.6 725.29 419.6 725.29 419.6 725.29C419.6 758.54 419.6 777.01 419.6 780.71C419.6 780.71 419.6 780.71 419.6 780.71C258.58 780.71 169.13 780.71 151.23 780.71C151.23 780.71 151.23 780.71 151.23 780.71C151.23 747.46 151.23 728.98 151.23 725.29C151.23 725.29 151.23 725.29 151.23 725.29C312.25 725.29 401.71 725.29 419.6 725.29Z" id="dGDr1U0BK"></path></defs><g><g><g><use xlink:href="#a4rhfpKlB9" opacity="1" fill="#e6e6e6" fill-opacity="1"></use><g><use xlink:href="#a4rhfpKlB9" opacity="1" fill-opacity="0" stroke="#000000" stroke-width="1" stroke-opacity="0"></use></g></g><g><use xlink:href="#a203H7xhqp" opacity="1" fill="#666666" fill-opacity="1"></use><g><use xlink:href="#a203H7xhqp" opacity="1" fill-opacity="0" stroke="#000000" stroke-width="1" stroke-opacity="0"></use></g></g><g><use xlink:href="#dbsi8zDFy" opacity="1" fill="#6c63ff" fill-opacity="1"></use><g><use xlink:href="#dbsi8zDFy" opacity="1" fill-opacity="0" stroke="#000000" stroke-width="1" stroke-opacity="0"></use></g></g><g><use xlink:href="#b7phmbT1J" opacity="1" fill="#ffffff" fill-opacity="1"></use><g><use xlink:href="#b7phmbT1J" opacity="1" fill-opacity="0" stroke="#000000" stroke-width="1" stroke-opacity="0"></use></g></g><g><use xlink:href="#b1wqpzxnI" opacity="1" fill="#ffffff" fill-opacity="1"></use><g><use xlink:href="#b1wqpzxnI" opacity="1" fill-opacity="0" stroke="#000000" stroke-width="1" stroke-opacity="0"></use></g></g><g><use xlink:href="#i1BUNrEg9j" opacity="1" fill="#ffffff" fill-opacity="1"></use><g><use xlink:href="#i1BUNrEg9j" opacity="1" fill-opacity="0" stroke="#000000" stroke-width="1" stroke-opacity="0"></use></g></g><g><use xlink:href="#a348Kf0EDM" opacity="1" fill="#6c63ff" fill-opacity="1"></use><g><use xlink:href="#a348Kf0EDM" opacity="1" fill-opacity="0" stroke="#000000" stroke-width="1" stroke-opacity="0"></use></g></g><g><use xlink:href="#b3grL7tGre" opacity="1" fill="#f2a93e" fill-opacity="1"></use><g><use xlink:href="#b3grL7tGre" opacity="1" fill-opacity="0" stroke="#000000" stroke-width="1" stroke-opacity="0"></use></g></g><g><use xlink:href="#a84N37gx3k" opacity="1" fill="#f2a93e" fill-opacity="1"></use><g><use xlink:href="#a84N37gx3k" opacity="1" fill-opacity="0" stroke="#000000" stroke-width="1" stroke-opacity="0"></use></g></g><g><use xlink:href="#bBhkp5mYx" opacity="1" fill="#f2a93e" fill-opacity="1"></use><g><use xlink:href="#bBhkp5mYx" opacity="1" fill-opacity="0" stroke="#000000" stroke-width="1" stroke-opacity="0"></use></g></g><g><use xlink:href="#gw4n9W3af" opacity="1" fill="#e6e6e6" fill-opacity="1"></use><g><use xlink:href="#gw4n9W3af" opacity="1" fill-opacity="0" stroke="#000000" stroke-width="1" stroke-opacity="0"></use></g></g><g><use xlink:href="#dUtrdjyUa" opacity="1" fill="#ffffff" fill-opacity="1"></use><g><use xlink:href="#dUtrdjyUa" opacity="1" fill-opacity="0" stroke="#000000" stroke-width="1" stroke-opacity="0"></use></g></g><g><use xlink:href="#af90MYINV" opacity="1" fill="#ffb8b8" fill-opacity="1"></use><g><use xlink:href="#af90MYINV" opacity="1" fill-opacity="0" stroke="#000000" stroke-width="1" stroke-opacity="0"></use></g></g><g><use xlink:href="#dH7Gl3GHt" opacity="1" fill="#ffb8b8" fill-opacity="1"></use><g><use xlink:href="#dH7Gl3GHt" opacity="1" fill-opacity="0" stroke="#000000" stroke-width="1" stroke-opacity="0"></use></g></g><g><use xlink:href="#arxTQZa0f" opacity="1" fill="#2f2e41" fill-opacity="1"></use><g><use xlink:href="#arxTQZa0f" opacity="1" fill-opacity="0" stroke="#000000" stroke-width="1" stroke-opacity="0"></use></g></g><g><use xlink:href="#cbYUjKYGx" opacity="1" fill="#2f2e41" fill-opacity="1"></use><g><use xlink:href="#cbYUjKYGx" opacity="1" fill-opacity="0" stroke="#000000" stroke-width="1" stroke-opacity="0"></use></g></g><g><use xlink:href="#eIepvWdq5" opacity="1" fill="#2f2e41" fill-opacity="1"></use><g><use xlink:href="#eIepvWdq5" opacity="1" fill-opacity="0" stroke="#000000" stroke-width="1" stroke-opacity="0"></use></g></g><g><use xlink:href="#c448AkkD" opacity="1" fill="#ffb8b8" fill-opacity="1"></use><g><use xlink:href="#c448AkkD" opacity="1" fill-opacity="0" stroke="#000000" stroke-width="1" stroke-opacity="0"></use></g></g><g><use xlink:href="#a1L2YaoAvf" opacity="1" fill="#ffb8b8" fill-opacity="1"></use><g><use xlink:href="#a1L2YaoAvf" opacity="1" fill-opacity="0" stroke="#000000" stroke-width="1" stroke-opacity="0"></use></g></g><g><use xlink:href="#d6sUy23SSO" opacity="1" fill="#ffb8b8" fill-opacity="1"></use><g><use xlink:href="#d6sUy23SSO" opacity="1" fill-opacity="0" stroke="#000000" stroke-width="1" stroke-opacity="0"></use></g></g><g><use xlink:href="#k7gP4X4Tx1" opacity="1" fill="#ffb8b8" fill-opacity="1"></use><g><use xlink:href="#k7gP4X4Tx1" opacity="1" fill-opacity="0" stroke="#000000" stroke-width="1" stroke-opacity="0"></use></g></g><g><use xlink:href="#du2PYVVmB" opacity="1" fill="#e6e6e6" fill-opacity="1"></use><g><use xlink:href="#du2PYVVmB" opacity="1" fill-opacity="0" stroke="#000000" stroke-width="1" stroke-opacity="0"></use></g></g><g><use xlink:href="#e2rwftLfoI" opacity="1" fill="#e6e6e6" fill-opacity="1"></use><g><use xlink:href="#e2rwftLfoI" opacity="1" fill-opacity="0" stroke="#000000" stroke-width="1" stroke-opacity="0"></use></g></g><g><use xlink:href="#c61puGAvWJ" opacity="1" fill="#e6e6e6" fill-opacity="1"></use><g><use xlink:href="#c61puGAvWJ" opacity="1" fill-opacity="0" stroke="#000000" stroke-width="1" stroke-opacity="0"></use></g></g><g><use xlink:href="#a18lVo0WBz" opacity="1" fill="#2f2e41" fill-opacity="1"></use><g><use xlink:href="#a18lVo0WBz" opacity="1" fill-opacity="0" stroke="#000000" stroke-width="1" stroke-opacity="0"></use></g></g><g><use xlink:href="#b1sWA5g9yV" opacity="1" fill="#3f3d56" fill-opacity="1"></use><g><use xlink:href="#b1sWA5g9yV" opacity="1" fill-opacity="0" stroke="#000000" stroke-width="1" stroke-opacity="0"></use></g></g><g><use xlink:href="#dGDr1U0BK" opacity="1" fill="#f2a93e" fill-opacity="1"></use><g><use xlink:href="#dGDr1U0BK" opacity="1" fill-opacity="0" stroke="#6c4427" stroke-width="1" stroke-opacity="0"></use></g></g></g></g></svg>